<?xml version="1.0" encoding="UTF-8" standalone="no"?>
<!-- Generator: Adobe Illustrator 21.0.2, SVG Export Plug-In . SVG Version: 6.00 Build 0)  -->

<svg
   xmlns:dc="http://purl.org/dc/elements/1.1/"
   xmlns:cc="http://creativecommons.org/ns#"
   xmlns:rdf="http://www.w3.org/1999/02/22-rdf-syntax-ns#"
   xmlns:svg="http://www.w3.org/2000/svg"
   xmlns="http://www.w3.org/2000/svg"
   xmlns:sodipodi="http://sodipodi.sourceforge.net/DTD/sodipodi-0.dtd"
   xmlns:inkscape="http://www.inkscape.org/namespaces/inkscape"
   version="1.1"
   id="Capa_1"
   x="0px"
   y="0px"
   viewBox="0 0 55 62"
   style="enable-background:new 0 0 55 62;"
   xml:space="preserve"
   inkscape:version="0.91 r13725"
   sodipodi:docname="bell2.svg"><metadata
     id="metadata3457"><rdf:RDF><cc:Work
         rdf:about=""><dc:format>image/svg+xml</dc:format><dc:type
           rdf:resource="http://purl.org/dc/dcmitype/StillImage" /><dc:title /></cc:Work></rdf:RDF></metadata><defs
     id="defs3455" /><sodipodi:namedview
     pagecolor="#ffffff"
     bordercolor="#666666"
     borderopacity="1"
     objecttolerance="10"
     gridtolerance="10"
     guidetolerance="10"
     inkscape:pageopacity="0"
     inkscape:pageshadow="2"
     inkscape:window-width="1233"
     inkscape:window-height="1006"
     id="namedview3453"
     showgrid="false"
     inkscape:zoom="3.8064516"
     inkscape:cx="27.5"
     inkscape:cy="31"
     inkscape:window-x="47"
     inkscape:window-y="18"
     inkscape:window-maximized="1"
     inkscape:current-layer="Capa_1" /><g
     id="g3445"><g
       id="g3447"><path
         d="M48.1,39.7V25.8c0-9.8-6.8-18-15.9-20.1C32.1,3.1,30,1,27.4,1c-2.6,0-4.7,2.1-4.7,4.6C13.5,7.8,6.7,16,6.7,25.8v13.9    c-3.4,0-6.2,2.8-6.2,6.2v4.4h53.8v-4.4C54.3,42.4,51.5,39.7,48.1,39.7z"
         id="path3449" /><path
         d="M27.4,60.5c4.1,0,7.6-2.8,8.7-6.6H18.7C19.8,57.7,23.3,60.5,27.4,60.5z"
         id="path3451" /></g></g><path
     style="fill:#aa0000"
     d="M 0.55490051,47.359344 C 0.66054709,45.130423 0.821059,44.21949 1.2724734,43.286992 2.037387,41.706893 3.4316701,40.582678 5.2664984,40.066602 L 6.7558782,39.647686 6.868555,30.949691 C 6.992797,21.358951 7.0530221,20.92915 8.8048862,17.130911 11.09735,12.160589 15.805395,7.9297711 20.83436,6.3207941 c 1.908074,-0.6104733 1.940232,-0.6356198 2.104461,-1.6456019 0.33229,-2.0435375 3.07789,-3.86911596 5.215802,-3.4680415 1.823112,0.342018 3.847339,2.4324689 3.859699,3.985974 0.0034,0.4303299 0.318037,0.6407377 1.514915,1.0131475 C 40.045923,8.2339468 45.11229,13.418605 47.154825,20.15 c 0.705599,2.325371 0.719255,2.505851 0.827274,10.931803 l 0.109832,8.567394 1.48666,0.418159 c 1.80817,0.508591 3.225162,1.636991 3.958837,3.152558 0.456549,0.943106 0.549013,1.628963 0.549013,4.072351 l 0,2.938243 -26.833813,0 -26.8338151,0 0.13608761,-2.871164 z"
     id="path3459"
     inkscape:connector-curvature="0" /><path
     style="fill:#ffd5d5"
     d="m 25.748169,60.200746 c -2.595041,-0.527123 -5.02311,-2.385618 -6.235713,-4.772945 -0.346173,-0.681531 -0.629405,-1.302188 -0.629405,-1.379237 0,-0.07705 3.842161,-0.140089 8.538135,-0.140089 4.695975,0 8.538136,0.06304 8.538136,0.140089 0,0.07705 -0.285598,0.697706 -0.634663,1.379237 -1.744238,3.405539 -5.961236,5.5073 -9.57649,4.772945 z"
     id="path3461"
     inkscape:connector-curvature="0" /><path
     style="fill:#217821"
     d="m 0.60911733,47.669068 c 0.098109,-1.408793 0.35731885,-3.120607 0.57602187,-3.804034 0.5107469,-1.596035 2.1593986,-3.081145 4.0992706,-3.692636 l 1.4305168,-0.450932 0.1723553,-5.319631 c 0.094795,-2.925798 0.1735588,-6.560945 0.1750297,-8.078106 0.00487,-5.021719 0.9115487,-8.161552 3.4548264,-11.964068 2.320323,-3.469171 5.603556,-6.0611554 9.810828,-7.7452667 2.237395,-0.8955971 2.38282,-1.0020046 2.70718,-1.9808401 0.669387,-2.0200394 2.433119,-3.2674525 4.619891,-3.2674525 1.458876,0 3.154037,1.1986255 3.901187,2.7584746 0.276838,0.5779661 0.590143,1.2193923 0.696234,1.4253918 0.106088,0.2059995 0.776647,0.5731007 1.49013,0.8157802 6.153592,2.0930436 10.896681,6.8394237 13.067464,13.0765287 0.766691,2.202856 0.802096,2.50798 0.996603,8.589079 0.110922,3.467797 0.209715,7.510801 0.219543,8.984457 l 0.01787,2.679372 1.458786,0.459843 c 1.734403,0.546721 3.448718,1.932164 3.995524,3.229025 0.232621,0.551711 0.449167,2.147825 0.527883,3.890947 l 0.133468,2.955508 -26.864497,0 -26.86449486,0 0.17837994,-2.56144 5.25e-6,0 z"
     id="path3463"
     inkscape:connector-curvature="0" /><path
     style="fill:#6f916f"
     d="m 24.479338,59.677402 c -0.751068,-0.29767 -1.965863,-1.080927 -2.699546,-1.740571 -1.30225,-1.170835 -2.841362,-3.383171 -2.553747,-3.670785 0.180284,-0.180285 16.197728,-0.192555 16.377737,-0.01255 0.242757,0.242758 -0.740937,1.827961 -1.909736,3.077502 -2.312555,2.472309 -6.321397,3.493106 -9.214708,2.346401 z"
     id="path3465"
     inkscape:connector-curvature="0" /><path
     style="fill:#aa0000"
     d="m 0.54791812,49.665678 c 0.006849,-1.460864 0.59084238,-5.215456 0.95136578,-6.116492 0.5517914,-1.379061 2.2144176,-2.77658 3.9566759,-3.32578 l 1.3948876,-0.439698 0.013099,-1.331261 c 0.00721,-0.732193 0.1151645,-4.70054 0.239909,-8.818549 C 7.3079773,22.895509 7.3936913,21.933286 7.9607998,20.013851 9.6951184,14.143879 14.043632,9.4422907 20.183072,6.7991997 c 2.080232,-0.8955614 2.361957,-1.1039728 2.959002,-2.188978 0.87999,-1.5991985 1.533433,-2.2984541 2.549912,-2.7286837 2.25629,-0.95498541 4.484699,0.00314 5.81581,2.5005544 0.771926,1.448284 0.960437,1.6202216 2.343371,2.1373407 4.27117,1.5971129 8.060428,4.5663359 10.488498,8.2186749 1.483839,2.232011 2.860861,5.750525 3.10506,7.933926 0.09696,0.866949 0.253748,5.058167 0.348411,9.313816 l 0.172118,7.737547 1.628764,0.621503 c 0.942526,0.359647 2.067209,1.046999 2.669397,1.631401 1.173263,1.138615 1.483119,2.22863 1.700405,5.98175 l 0.125479,2.167373 -26.771768,0 c -25.3226022,0 -26.77165171,-0.02489 -26.76961288,-0.459746 z"
     id="path3394"
     inkscape:connector-curvature="0" /><path
     style="fill:#ff0000"
     d="m 25.082079,59.751633 c -1.693033,-0.554609 -3.454716,-1.918282 -4.7487,-3.675845 l -1.18948,-1.615618 8.079846,-0.06953 c 4.443915,-0.03824 8.138287,-0.01109 8.209716,0.06034 0.188653,0.188653 -1.060036,2.001285 -2.084122,3.025371 -1.959704,1.959704 -5.910989,3.047163 -8.26726,2.275287 z"
     id="path3396"
     inkscape:connector-curvature="0" /><path
     style="fill:#800000"
     d="m 5.5420847,49.871707 -4.85537309,-0.140351 0.073638,-1.182203 C 0.85725194,46.993457 1.299611,44.471723 1.6288956,43.597872 2.1597137,42.189195 4.0772001,40.750693 6.3512151,40.055179 6.8796256,39.893561 7.1099848,37.889235 7.1231101,33.339005 7.1422781,26.69402 7.5495926,21.793053 8.271636,19.519491 9.9842407,14.126864 13.808921,10.041085 19.968338,7.0242936 c 2.096569,-1.0268682 2.694876,-1.453176 3.180472,-2.2661578 1.509946,-2.5279471 3.225753,-3.5152634 5.189874,-2.9863802 1.161538,0.3127695 2.513362,1.5447172 3.224402,2.9384694 0.587765,1.1521166 0.600762,1.1616144 3.074372,2.2468892 5.892333,2.5852072 10.307041,7.4411998 12.137296,13.3505128 0.503648,1.626115 0.603318,2.863245 0.861075,10.687657 l 0.2915,8.848675 1.201166,0.452497 c 1.667343,0.628115 3.360973,1.832063 3.81656,2.713075 0.479956,0.928133 0.926627,3.622534 0.929233,5.6053 l 0.002,1.510593 -21.739407,-0.05668 C 20.180191,50.037562 8.2125397,49.948897 5.5420847,49.871707 Z"
     id="path3398"
     inkscape:connector-curvature="0" /></svg>