<?xml version="1.0" encoding="UTF-8" standalone="no"?>
<!-- Generator: Adobe Illustrator 21.0.2, SVG Export Plug-In . SVG Version: 6.00 Build 0)  -->

<svg
   xmlns:dc="http://purl.org/dc/elements/1.1/"
   xmlns:cc="http://creativecommons.org/ns#"
   xmlns:rdf="http://www.w3.org/1999/02/22-rdf-syntax-ns#"
   xmlns:svg="http://www.w3.org/2000/svg"
   xmlns="http://www.w3.org/2000/svg"
   xmlns:sodipodi="http://sodipodi.sourceforge.net/DTD/sodipodi-0.dtd"
   xmlns:inkscape="http://www.inkscape.org/namespaces/inkscape"
   version="1.1"
   id="Capa_1"
   x="0px"
   y="0px"
   viewBox="0 0 55 62"
   style="enable-background:new 0 0 55 62;"
   xml:space="preserve"
   inkscape:version="0.91 r13725"
   sodipodi:docname="bell2.svg"><metadata
     id="metadata15"><rdf:RDF><cc:Work
         rdf:about=""><dc:format>image/svg+xml</dc:format><dc:type
           rdf:resource="http://purl.org/dc/dcmitype/StillImage" /><dc:title></dc:title></cc:Work></rdf:RDF></metadata><defs
     id="defs13" /><sodipodi:namedview
     pagecolor="#ffffff"
     bordercolor="#666666"
     borderopacity="1"
     objecttolerance="10"
     gridtolerance="10"
     guidetolerance="10"
     inkscape:pageopacity="0"
     inkscape:pageshadow="2"
     inkscape:window-width="1215"
     inkscape:window-height="918"
     id="namedview11"
     showgrid="false"
     inkscape:zoom="7.6129032"
     inkscape:cx="26.326383"
     inkscape:cy="29.489407"
     inkscape:window-x="65"
     inkscape:window-y="24"
     inkscape:window-maximized="1"
     inkscape:current-layer="g5" /><g
     id="g3"><g
       id="g5"><path
         d="M48.1,39.7V25.8c0-9.8-6.8-18-15.9-20.1C32.1,3.1,30,1,27.4,1c-2.6,0-4.7,2.1-4.7,4.6C13.5,7.8,6.7,16,6.7,25.8v13.9    c-3.4,0-6.2,2.8-6.2,6.2v4.4h53.8v-4.4C54.3,42.4,51.5,39.7,48.1,39.7z"
         id="path7"
         style="fill:#f7f012;fill-opacity:0.61702126" /><path
         d="m 27.4,56.95339 c 4.1,0 7.6,-2.8 8.7,-6.6 l -17.4,0 c 1.1,3.8 4.6,6.6 8.7,6.6 z"
         id="path9"
         style="fill:#c8b7b7;fill-opacity:0.61702126"
         inkscape:connector-curvature="0" /><ellipse
         style="opacity:1;fill:#554400;fill-opacity:0.61702126;fill-rule:nonzero;stroke:none;stroke-linecap:butt;stroke-linejoin:bevel;stroke-opacity:1"
         id="path5638"
         cx="27.650423"
         cy="4.3347459"
         rx="2.6927967"
         ry="2.1016948" /></g></g></svg>