<?xml version="1.0" encoding="utf-8"?>
<!-- Generator: Adobe Illustrator 16.0.0, SVG Export Plug-In . SVG Version: 6.00 Build 0)  -->
<!DOCTYPE svg PUBLIC "-//W3C//DTD SVG 1.1//EN" "http://www.w3.org/Graphics/SVG/1.1/DTD/svg11.dtd">
<svg version="1.1" id="Layer_1" xmlns="http://www.w3.org/2000/svg" xmlns:xlink="http://www.w3.org/1999/xlink" x="0px" y="0px"
	 width="182.695px" height="69.35px" viewBox="0 0 182.695 69.35" enable-background="new 0 0 182.695 69.35" xml:space="preserve">
<path fill="#59C1D3" d="M34.674,0C15.554,0,0,15.554,0,34.675C0,53.794,15.554,69.35,34.674,69.35
	c19.119,0,34.674-15.556,34.674-34.675C69.349,15.554,53.793,0,34.674,0z M34.674,2.488c17.746,0,32.186,14.438,32.186,32.187
	c0,1.229-0.077,2.442-0.21,3.636c-2.144-7.058-8.772-13.24-22.34-16.186c-16.665-2.614-10.809-7.666-7.722-9.492
	c-0.705,0.091-0.949,0.234-1.266,0.296c-17.576,4.766-11.74,10.354-11.74,10.354c13.428,12.88,2.439,23.921-13.498,32.131
	C5.35,49.807,2.487,42.571,2.487,34.675C2.487,16.926,16.927,2.488,34.674,2.488z M29.333,19.018
	c0.088,0.519,0.387,1.051,0.907,1.59c0.072,0.075,0.104,0.161,0.094,0.246c-0.011,0.111-0.09,0.217-0.208,0.293
	c-0.087,0.066-0.199,0.098-0.321,0.098c-0.137,0-0.263-0.054-0.336-0.13c-0.626-0.66-0.978-1.292-1.073-1.929
	c-0.042-0.201,0.141-0.401,0.4-0.454C29.057,18.691,29.304,18.818,29.333,19.018z M28.941,17.172
	c0.007-0.052,0.025-0.091,0.056-0.133c0.303-0.454,0.704-0.879,1.196-1.294c0.171-0.14,0.47-0.161,0.653-0.042
	c0.183,0.122,0.185,0.354-0.001,0.509c-0.43,0.355-0.773,0.733-1.026,1.115c-0.093,0.133-0.275,0.217-0.458,0.217
	c-0.068,0-0.131-0.011-0.183-0.032C29.014,17.46,28.924,17.327,28.941,17.172z M31.839,61.738c0.244-0.227,0.654-0.244,0.918-0.039
	c0.264,0.21,0.287,0.562,0.044,0.792c-0.857,0.813-1.743,1.626-2.646,2.434c-0.125,0.113-0.298,0.171-0.469,0.171
	c-0.162,0-0.324-0.053-0.448-0.155c-0.261-0.213-0.268-0.57-0.019-0.792C30.116,63.35,30.991,62.545,31.839,61.738z M31.102,22.306
	c-0.004-0.098,0.047-0.208,0.125-0.286c0.178-0.165,0.494-0.209,0.685-0.076c0.719,0.465,1.485,0.873,1.994,1.137
	c0.144,0.08,0.216,0.202,0.205,0.348c-0.005,0.066-0.04,0.147-0.085,0.202c-0.106,0.122-0.263,0.191-0.428,0.191
	c-0.095,0-0.175-0.025-0.256-0.057c-0.838-0.436-1.498-0.816-2.074-1.205C31.179,22.503,31.12,22.409,31.102,22.306z M41.227,51.356
	c0.194-0.26,0.599-0.335,0.896-0.17c0.304,0.166,0.393,0.51,0.199,0.771c-0.682,0.921-1.414,1.854-2.176,2.771
	c-0.128,0.155-0.328,0.237-0.53,0.237c-0.131,0-0.263-0.035-0.377-0.104c-0.292-0.183-0.361-0.53-0.153-0.78
	C39.839,53.179,40.555,52.26,41.227,51.356z M39.767,26.508c0.162-0.185,0.472-0.242,0.688-0.127
	c0.839,0.442,1.553,0.852,2.188,1.263c0.125,0.084,0.192,0.203,0.189,0.331c0,0.097-0.033,0.181-0.105,0.25
	c-0.084,0.107-0.245,0.181-0.4,0.181c-0.113,0-0.21-0.037-0.296-0.085c-0.65-0.414-1.337-0.815-2.135-1.241
	c-0.111-0.057-0.173-0.151-0.197-0.267C39.674,26.707,39.692,26.602,39.767,26.508z M45.033,45.641
	c0.167-0.274,0.56-0.379,0.878-0.235c0.317,0.144,0.44,0.484,0.272,0.755c-0.6,0.982-1.21,1.917-1.773,2.771l-0.098,0.148
	c-0.118,0.183-0.339,0.284-0.566,0.284c-0.109,0-0.218-0.022-0.318-0.071c-0.314-0.15-0.425-0.492-0.248-0.762l0.097-0.149
	C43.833,47.536,44.438,46.612,45.033,45.641z M43.996,29.133c0.187-0.155,0.513-0.168,0.711-0.014
	c0.691,0.581,1.3,1.189,1.814,1.814l0.015,0.01c0.144,0.198,0.086,0.458-0.144,0.593c-0.087,0.05-0.189,0.076-0.289,0.076
	c-0.174,0-0.328-0.065-0.417-0.184c-0.469-0.567-1.039-1.145-1.688-1.679C43.805,29.58,43.795,29.303,43.996,29.133z M47.894,39.643
	c0.087-0.3,0.434-0.482,0.787-0.408c0.348,0.072,0.562,0.374,0.477,0.675c-0.282,0.995-0.703,2.05-1.281,3.22
	c-0.105,0.211-0.346,0.34-0.599,0.34c-0.084,0-0.17-0.011-0.253-0.042c-0.331-0.122-0.485-0.451-0.344-0.736
	C47.231,41.576,47.628,40.579,47.894,39.643z M47.549,32.823c0.319-0.138,0.713-0.032,0.875,0.244
	c0.622,1.05,0.996,2.185,1.11,3.377c0.029,0.307-0.236,0.578-0.596,0.603c-0.018,0-0.037,0.003-0.054,0.003
	c-0.335,0-0.62-0.222-0.647-0.515c-0.101-1.061-0.419-2.028-0.972-2.96C47.103,33.299,47.229,32.961,47.549,32.823z M38.392,25.803
	c-0.087,0.126-0.257,0.195-0.44,0.195c-0.042,0-0.097,0-0.152-0.012v0.012l-0.082-0.045c-0.027-0.011-0.04-0.023-0.054-0.023
	c-0.244-0.126-0.5-0.253-0.755-0.38c-0.473-0.23-0.939-0.459-1.394-0.686c-0.108-0.058-0.183-0.149-0.203-0.252
	c-0.036-0.102,0.002-0.214,0.063-0.306c0.149-0.18,0.458-0.249,0.685-0.148c0.332,0.171,0.667,0.34,1.015,0.51
	c0.39,0.184,0.779,0.376,1.169,0.571c0.148,0.069,0.24,0.206,0.231,0.344C38.471,25.664,38.439,25.733,38.392,25.803z
	 M36.796,56.711c0.221-0.245,0.631-0.282,0.913-0.094c0.28,0.188,0.328,0.543,0.109,0.784c-0.788,0.866-1.608,1.726-2.456,2.583
	c-0.129,0.133-0.31,0.202-0.495,0.202c-0.147,0-0.297-0.044-0.419-0.136c-0.273-0.202-0.308-0.553-0.074-0.786
	C35.206,58.416,36.015,57.566,36.796,56.711z"/>
<g>
	<path fill="#59C1D3" d="M78.062,28.717c-3.037-3.037-4.693-7.085-4.693-11.41c0-4.278,1.656-8.327,4.693-11.363
		c3.036-3.082,7.084-4.738,11.409-4.738c4.278,0,8.326,1.656,11.409,4.738c0.506,0.506,0.736,1.15,0.736,1.84
		s-0.23,1.38-0.782,1.932c-0.553,0.552-1.196,0.782-1.887,0.782c-0.689,0-1.38-0.23-1.886-0.782
		c-2.024-2.024-4.739-3.128-7.591-3.128c-2.898,0-5.567,1.104-7.591,3.128c-2.024,2.024-3.175,4.739-3.175,7.591
		c0,2.853,1.15,5.567,3.175,7.591c2.07,2.116,4.83,3.174,7.591,3.174c2.438,0,4.83-0.828,6.809-2.438v-5.659h-6.717
		c-1.473,0-2.715-1.196-2.715-2.668s1.242-2.668,2.715-2.668h9.385c1.473,0,2.669,1.196,2.669,2.668v9.477
		c0,0.736-0.276,1.426-0.782,1.933c-3.129,3.128-7.27,4.692-11.363,4.692C85.33,33.409,81.189,31.845,78.062,28.717z"/>
	<path fill="#59C1D3" d="M116.016,14.639c0,1.472-1.196,2.668-2.668,2.668c-0.875,0-2.024,0.138-2.484,0.828
		c-0.139,0.23-0.185,0.506-0.185,0.506v12.099c0,1.472-1.196,2.668-2.714,2.668c-1.473,0-2.669-1.196-2.669-2.668V14.639
		c0-1.518,1.196-2.714,2.669-2.714c0.689,0,1.288,0.23,1.748,0.644c1.012-0.414,2.208-0.644,3.635-0.644
		C114.819,11.925,116.016,13.121,116.016,14.639z"/>
	<path fill="#59C1D3" d="M126.78,33.363c-2.806-0.138-5.244-1.334-6.9-3.404c-1.519-1.933-2.301-4.463-2.301-7.315
		c0-5.935,4.232-10.719,9.386-10.719c2.576,0,4.968,1.058,6.717,3.036c1.748,1.886,2.668,4.463,2.668,7.223
		c0,1.472-1.196,2.714-2.668,2.714h-10.443c0.46,1.472,1.472,3.036,3.818,3.128h0.276c0.689,0,1.978,0,3.128-0.828
		c0.46-0.276,0.966-0.414,1.472-0.414c0.875,0,1.749,0.414,2.255,1.196c0.322,0.414,0.46,0.92,0.46,1.426
		c0,0.874-0.46,1.794-1.242,2.3c-2.208,1.472-4.509,1.702-5.797,1.702C127.24,33.409,126.965,33.409,126.78,33.363z M130.415,19.516
		c-0.69-1.38-1.933-2.254-3.45-2.254c-1.288,0-2.484,0.92-3.221,2.254H130.415z"/>
	<path fill="#59C1D3" d="M149.23,33.363c-2.806-0.138-5.244-1.334-6.9-3.404c-1.519-1.933-2.301-4.463-2.301-7.315
		c0-5.935,4.232-10.719,9.386-10.719c2.576,0,4.969,1.058,6.717,3.036c1.748,1.886,2.668,4.463,2.668,7.223
		c0,1.472-1.196,2.714-2.668,2.714h-10.443c0.46,1.472,1.472,3.036,3.818,3.128h0.276c0.689,0,1.978,0,3.128-0.828
		c0.46-0.276,0.966-0.414,1.473-0.414c0.874,0,1.748,0.414,2.254,1.196c0.322,0.414,0.46,0.92,0.46,1.426
		c0,0.874-0.46,1.794-1.242,2.3c-2.208,1.472-4.509,1.702-5.797,1.702C149.69,33.409,149.415,33.409,149.23,33.363z M152.865,19.516
		c-0.69-1.38-1.933-2.254-3.45-2.254c-1.288,0-2.484,0.92-3.221,2.254H152.865z"/>
	<path fill="#59C1D3" d="M181.251,14.639v16.102c0,1.104-0.69,2.116-1.748,2.484c-0.322,0.138-0.645,0.184-0.966,0.184
		c-0.782,0-1.519-0.368-2.024-0.966l-8.649-10.397v8.695c0,1.472-1.196,2.668-2.714,2.668c-1.473,0-2.669-1.196-2.669-2.668V14.639
		c0-1.15,0.69-2.163,1.749-2.53c0.321-0.138,0.644-0.184,0.966-0.184c0.782,0,1.518,0.368,2.024,0.966l8.694,10.397v-8.649
		c0-1.518,1.196-2.714,2.669-2.714C180.055,11.925,181.251,13.121,181.251,14.639z"/>
</g>
<g>
	<path fill="#59C1D3" d="M98.494,62.268c0.274,0.456,0.411,0.912,0.411,1.413c0,0.866-0.456,1.733-1.276,2.234
		c-0.411,0.273-0.912,0.411-1.368,0.411c-0.912,0-1.778-0.457-2.28-1.232l-5.882-9.392h-4.468v7.979c0,1.459-1.23,2.645-2.69,2.645
		c-1.459,0-2.645-1.186-2.645-2.645V37.053c0-1.459,1.186-2.644,2.645-2.644h7.25c0.273,0,2.689,0.045,5.197,1.277
		c3.557,1.778,5.518,5.061,5.518,9.346c0,0.274-0.046,2.736-1.276,5.198c-0.958,1.87-2.325,3.283-4.013,4.195L98.494,62.268z
		 M83.631,50.367h4.56c2.279,0,3.738-0.775,4.604-2.417c0.729-1.367,0.775-2.826,0.775-2.918c0-2.279-0.82-3.738-2.554-4.604
		c-1.367-0.685-2.826-0.685-2.826-0.685h-4.56V50.367z"/>
	<path fill="#59C1D3" d="M122.019,55.702c0,5.836-4.788,10.624-10.669,10.624c-5.837,0-10.624-4.788-10.624-10.624
		c0-5.882,4.787-10.67,10.624-10.67C117.23,45.032,122.019,49.82,122.019,55.702z M116.685,55.702c0-2.964-2.372-5.335-5.335-5.335
		c-2.919,0-5.289,2.371-5.289,5.335c0,2.918,2.37,5.289,5.289,5.289C114.313,60.991,116.685,58.62,116.685,55.702z"/>
	<path fill="#59C1D3" d="M142.67,47.723v10.35c0,0.365-0.046,2.143-1.004,4.012c-1.459,2.736-4.104,4.241-7.478,4.241
		c-3.42,0-6.063-1.505-7.478-4.241c-1.003-1.87-1.049-3.647-1.049-4.012v-10.35c0-1.505,1.185-2.691,2.645-2.691
		c1.459,0,2.69,1.186,2.69,2.691v10.35c0,0.091,0.046,0.912,0.455,1.687c0.365,0.592,0.958,1.231,2.736,1.231
		c1.732,0,2.371-0.639,2.69-1.231c0.456-0.775,0.502-1.596,0.502-1.687v-10.35c0-1.505,1.185-2.691,2.644-2.691
		S142.67,46.218,142.67,47.723z"/>
	<path fill="#59C1D3" d="M162.272,47.723c0,1.459-1.186,2.644-2.646,2.644h-2.689v13.314c0,1.459-1.186,2.645-2.646,2.645
		c-1.459,0-2.644-1.186-2.644-2.645V50.367h-2.69c-1.46,0-2.645-1.185-2.645-2.644c0-1.505,1.185-2.691,2.645-2.691h2.69v-7.979
		c0-1.459,1.185-2.644,2.644-2.644c1.46,0,2.646,1.185,2.646,2.644v7.979h2.689C161.087,45.032,162.272,46.218,162.272,47.723z"/>
	<path fill="#59C1D3" d="M173.212,66.28c-2.782-0.137-5.198-1.322-6.839-3.375c-1.505-1.915-2.28-4.422-2.28-7.25
		c0-5.882,4.194-10.624,9.301-10.624c2.554,0,4.925,1.049,6.657,3.01c1.732,1.87,2.645,4.423,2.645,7.159
		c0,1.459-1.186,2.69-2.645,2.69H169.7c0.457,1.459,1.459,3.009,3.784,3.101h0.274c0.684,0,1.96,0,3.101-0.821
		c0.456-0.273,0.958-0.41,1.459-0.41c0.866,0,1.732,0.41,2.234,1.185c0.319,0.411,0.456,0.912,0.456,1.413
		c0,0.867-0.456,1.779-1.231,2.28c-2.188,1.459-4.469,1.688-5.744,1.688C173.668,66.326,173.394,66.326,173.212,66.28z
		 M176.813,52.556c-0.684-1.367-1.914-2.234-3.42-2.234c-1.276,0-2.462,0.912-3.191,2.234H176.813z"/>
</g>
</svg>
