<?xml version="1.0" encoding="UTF-8" standalone="no"?>
<!-- Generator: Adobe Illustrator 21.0.2, SVG Export Plug-In . SVG Version: 6.00 Build 0)  -->

<svg
   xmlns:dc="http://purl.org/dc/elements/1.1/"
   xmlns:cc="http://creativecommons.org/ns#"
   xmlns:rdf="http://www.w3.org/1999/02/22-rdf-syntax-ns#"
   xmlns:svg="http://www.w3.org/2000/svg"
   xmlns="http://www.w3.org/2000/svg"
   xmlns:sodipodi="http://sodipodi.sourceforge.net/DTD/sodipodi-0.dtd"
   xmlns:inkscape="http://www.inkscape.org/namespaces/inkscape"
   version="1.1"
   id="Capa_1"
   x="0px"
   y="0px"
   viewBox="0 0 64 59"
   style="enable-background:new 0 0 64 59;"
   xml:space="preserve"
   inkscape:version="0.91 r13725"
   sodipodi:docname="health2.svg"><metadata
     id="metadata3379"><rdf:RDF><cc:Work
         rdf:about=""><dc:format>image/svg+xml</dc:format><dc:type
           rdf:resource="http://purl.org/dc/dcmitype/StillImage" /><dc:title></dc:title></cc:Work></rdf:RDF></metadata><defs
     id="defs3377" /><sodipodi:namedview
     pagecolor="#ffffff"
     bordercolor="#666666"
     borderopacity="1"
     objecttolerance="10"
     gridtolerance="10"
     guidetolerance="10"
     inkscape:pageopacity="0"
     inkscape:pageshadow="2"
     inkscape:window-width="1233"
     inkscape:window-height="1006"
     id="namedview3375"
     showgrid="false"
     inkscape:zoom="14.728814"
     inkscape:cx="32"
     inkscape:cy="29.5"
     inkscape:window-x="47"
     inkscape:window-y="18"
     inkscape:window-maximized="1"
     inkscape:current-layer="Capa_1" /><g
     id="g3369"><path
       d="M14.7,27.6L14.7,27.6l3.9-14.5H22l6.8,25.3l2.5-9.5l1.7-1.3h6.5l3.9-14.5h3.4l3.9,14.5h11.3c0.8-2.5,1.2-5.2,1.2-7.9   c0-10.4-8-18.8-17.9-18.8c-5.2,0-9.9,2.4-13.2,6c-3.2-3.6-7.9-6-13.1-6c-9.8,0-18,8.4-18,18.8c0,2.8,0.6,5.5,1.3,7.9H14.7z"
       id="path3371" /><path
       d="M49.4,31.2h11.3C53.1,47.5,32.3,58,32.3,58S11.5,47.5,4,31.2h12l1.7-1.3l2.6-9.5l6.8,25.3h3.4l3.9-14.5h6.4l1.7-1.3   l2.5-9.5l2.6,9.5L49.4,31.2z"
       id="path3373" /></g><path
     style="fill:#ff0000"
     d="M 31.212428,57.379068 C 25.820591,54.36251 20.649977,50.697774 16.139931,46.696249 14.874089,45.573134 11.910642,42.607742 10.916847,41.469735 8.179357,38.335003 6.0650084,35.266289 4.5261511,32.194434 l -0.4722821,-0.942765 5.968057,0 5.968057,0 0.872731,-0.669215 0.872729,-0.669214 1.247265,-4.575607 c 0.685997,-2.516584 1.267352,-4.613165 1.2919,-4.659068 0.02455,-0.0459 1.55286,5.529903 3.396247,12.390679 1.843387,6.860777 3.365776,12.51233 3.383086,12.559007 0.02404,0.06483 0.437413,0.08487 1.750934,0.08487 1.578541,0 1.722426,-0.0097 1.755631,-0.118815 0.06843,-0.224778 3.842946,-14.282474 3.842946,-14.312543 0,-0.01655 1.43795,-0.03009 3.195444,-0.03009 l 3.195445,0 0.865912,-0.661968 0.865911,-0.661968 1.217413,-4.633478 c 0.669577,-2.548413 1.23506,-4.633611 1.256629,-4.633774 0.02157,-1.63e-4 0.584059,1.993245 1.249977,4.429795 0.665919,2.436551 1.236665,4.521749 1.268326,4.633775 0.04456,0.157655 0.265248,0.35327 0.976613,0.86565 l 0.919046,0.661968 5.59821,0 c 3.079015,0 5.598209,0.01734 5.598209,0.03854 0,0.09509 -0.996722,1.986617 -1.500183,2.84696 -4.19186,7.163307 -11.714877,14.457356 -21.140841,20.497409 -2.11063,1.352467 -5.470813,3.302317 -5.682379,3.297375 -0.04966,-0.0012 -0.5333,-0.249959 -1.074756,-0.552885 z"
     id="path3381"
     inkscape:connector-curvature="0" /><path
     style="fill:#ff0000"
     d="M 28.72057,37.992599 C 28.684586,37.851227 27.162713,32.182667 25.33863,25.3958 l -3.316514,-12.339759 -1.718998,0 c -0.945449,0 -1.720556,0.0076 -1.722461,0.01697 -0.0019,0.0093 -0.8804,3.2708 -1.952214,7.247698 l -1.948751,7.230725 -6.1870993,0.01733 -6.1870987,0.01733 -0.033764,-0.153118 C 2.2531599,27.348765 2.0978966,26.729919 1.9267006,26.057768 1.3128857,23.647801 1.0611501,21.827298 1.0582854,19.77756 1.0556986,17.926662 1.2062943,16.637111 1.6148701,15.011529 2.4418858,11.721119 4.0261734,8.8634424 6.3631761,6.4467199 7.4256798,5.3479722 8.2502249,4.6539898 9.4069704,3.8848949 15.185166,0.04309892 22.385254,-0.04671048 28.216118,3.6502812 c 1.065489,0.6755602 1.990843,1.413288 2.983701,2.3787176 l 0.9077,0.8826238 0.764515,-0.7468355 c 0.823496,-0.8044539 1.812361,-1.604741 2.78746,-2.2558883 6.384013,-4.26308877 14.539272,-3.90261798 20.537974,0.9077993 0.782879,0.6277985 2.105405,1.954949 2.73037,2.7399187 2.141555,2.6898402 3.519697,5.8436672 4.020012,9.1996552 0.459426,3.081705 0.138377,7.13353 -0.813669,10.268987 l -0.170076,0.560127 -5.617388,0 -5.617388,0 -1.893739,-7.044017 c -1.041558,-3.874208 -1.920775,-7.143311 -1.953818,-7.264672 l -0.06008,-0.220656 -1.720318,0 -1.720319,0 -0.14317,0.52618 c -0.07874,0.289399 -0.958461,3.558501 -1.954928,7.264672 l -1.811758,6.738493 -3.251432,0 -3.251432,0 -0.801758,0.611058 c -0.440966,0.336083 -0.830666,0.649245 -0.866,0.695915 -0.03533,0.04667 -0.608284,2.162417 -1.273225,4.701657 -0.664941,2.539241 -1.216269,4.625536 -1.225173,4.636213 -0.0089,0.01068 -0.04563,-0.09626 -0.08161,-0.23763 z"
     id="path3383"
     inkscape:connector-curvature="0" /><path
     style="fill:#ff0000"
     d="M 31.212428,57.348786 C 26.20856,54.546819 21.404585,51.185081 16.954661,47.371452 15.449524,46.081535 11.731312,42.389646 10.600596,41.062371 8.0111382,38.02277 6.0046762,35.077246 4.5607966,32.195831 4.3198268,31.71495 4.1226697,31.305789 4.1226697,31.286585 c 0,-0.0192 2.6787617,-0.03492 5.9528033,-0.03492 l 5.952804,0 0.861836,-0.655334 0.861836,-0.655334 1.061359,-3.8766 c 1.358219,-4.960881 1.425851,-5.200534 1.467638,-5.200534 0.0599,0 1.529123,5.378615 5.517426,20.198504 l 1.242465,4.6168 1.761806,0 1.761804,0 0.630622,-2.342347 c 0.346841,-1.288291 1.211981,-4.510384 1.922534,-7.160205 0.710552,-2.649821 1.305469,-4.831413 1.322038,-4.847982 0.01657,-0.01657 1.468063,-0.04494 3.225544,-0.06306 l 3.195419,-0.03293 0.794152,-0.606518 c 0.436783,-0.333585 0.817424,-0.629078 0.845871,-0.656651 0.02844,-0.02757 0.449798,-1.560588 0.93634,-3.406699 1.241645,-4.71124 1.512697,-5.698913 1.563981,-5.698913 0.05102,0 0.292567,0.846059 1.590047,5.569307 0.523577,1.905989 0.971479,3.411088 1.037492,3.486313 0.06389,0.0728 0.472709,0.397428 0.908489,0.721385 l 0.792328,0.589013 5.579723,0.0405 c 3.068847,0.02227 5.59535,0.05613 5.61445,0.07523 0.05282,0.05282 -1.005874,2.051096 -1.694797,3.198924 -4.127369,6.876696 -11.53376,14.037039 -20.521315,19.839576 -2.422653,1.564111 -5.742002,3.483552 -6.018052,3.479989 -0.08817,-0.0011 -0.572771,-0.233029 -1.076885,-0.515313 z"
     id="path3385"
     inkscape:connector-curvature="0" /><path
     style="fill:#d40000"
     d="M 28.71298,37.871346 C 28.672451,37.721979 28.192735,35.934666 27.646945,33.89954 25.123672,24.490825 22.23229,13.735203 22.139204,13.41135 l -0.102779,-0.35758 -1.743126,0.01811 -1.743126,0.01811 -1.939012,7.196778 -1.939012,7.196778 -6.1403896,0.04351 c -3.3772145,0.02393 -6.159738,0.02393 -6.1833856,0 C 2.274854,27.452652 1.5598358,24.403865 1.4146405,23.545685 0.78032743,19.796559 1.0618449,16.269871 2.2554434,13.012593 2.5718858,12.149036 3.4596551,10.341477 3.9514086,9.5594937 4.9392024,7.9887093 6.6757145,6.0306792 8.0944764,4.8879153 12.092411,1.667717 17.102446,0.36097714 22.043811,1.2495872 c 2.64034,0.4748148 5.380915,1.7130192 7.575976,3.4228619 0.300314,0.233929 0.985323,0.8401306 1.522244,1.3471146 l 0.97622,0.9217893 0.752209,-0.7277536 c 2.914347,-2.8195947 6.214502,-4.4820086 10.087653,-5.081535 0.970542,-0.15023071 3.508007,-0.17029859 4.481012,-0.035439 2.71893,0.3768471 5.175826,1.3015159 7.41626,2.7911569 3.4121,2.2686684 5.947437,5.6357076 7.287007,9.6774645 0.740838,2.235262 0.943087,3.584217 0.94159,6.280208 -0.0016,2.810378 -0.230806,4.511512 -0.958452,7.1123 l -0.175817,0.628411 -5.602001,-0.01736 -5.602002,-0.01736 -1.943619,-7.230725 -1.943621,-7.230725 -1.757242,0 -1.757242,0 -1.944868,7.230725 -1.944867,7.230725 -3.292006,0.03395 -3.292005,0.03395 -0.744038,0.578489 c -0.476975,0.370847 -0.78521,0.663285 -0.858743,0.814729 -0.06309,0.129933 -0.622733,2.161039 -1.243657,4.513571 -0.620924,2.352532 -1.153293,4.353711 -1.183043,4.447066 -0.05145,0.16145 -0.05769,0.156479 -0.127779,-0.101842 z"
     id="path3387"
     inkscape:connector-curvature="0" /><path
     style="fill:#ff0000"
     d="M 31.166908,57.327374 C 26.17531,54.542254 20.873361,50.805264 16.513349,46.999058 15.021608,45.696797 11.328784,41.949604 10.194436,40.587112 7.821896,37.737399 6.0044949,35.045741 4.6618187,32.393042 c -0.2965319,-0.585853 -0.539149,-1.082329 -0.539149,-1.10328 0,-0.02095 2.6809695,-0.03908 5.9577103,-0.04028 l 5.95771,-0.0022 0.856033,-0.658082 0.856034,-0.658084 0.890931,-3.260614 c 1.43791,-5.262447 1.591098,-5.806646 1.634516,-5.806646 0.0227,0 0.125287,0.297885 0.227974,0.661967 0.420093,1.489452 2.950231,10.805861 4.688013,17.262083 l 1.854879,6.891254 1.692588,0.01659 c 0.930923,0.0091 1.725824,-0.0062 1.766446,-0.03395 0.04062,-0.02779 0.295525,-0.87545 0.566453,-1.883678 0.270928,-1.008228 1.131668,-4.214 1.912756,-7.123937 0.781089,-2.909938 1.43765,-5.308298 1.459024,-5.32969 0.02137,-0.02139 1.47993,-0.05417 3.241233,-0.07284 l 3.202372,-0.03395 0.823308,-0.636243 0.823308,-0.636244 0.658201,-2.486886 c 1.352525,-5.110265 1.758476,-6.594482 1.803671,-6.594482 0.05696,0 0.204013,0.509031 1.461215,5.058112 0.546956,1.979114 1.035435,3.696456 1.085509,3.816315 0.06366,0.152382 0.349801,0.410545 0.951384,0.858364 l 0.860341,0.640437 5.554606,0.02426 c 3.055032,0.01334 5.575817,0.04547 5.601743,0.0714 0.05084,0.05085 -0.788393,1.700778 -1.42646,2.804411 -3.663398,6.336401 -10.578925,13.306904 -18.760437,18.909574 -2.951157,2.020942 -7.619381,4.820977 -8.0333,4.818433 -0.08879,-5.43e-4 -0.594373,-0.242556 -1.123523,-0.537802 z"
     id="path3389"
     inkscape:connector-curvature="0" /></svg>