<?xml version="1.0" encoding="UTF-8" standalone="no"?>
<!-- Generator: Adobe Illustrator 21.0.2, SVG Export Plug-In . SVG Version: 6.00 Build 0)  -->

<svg
   xmlns:dc="http://purl.org/dc/elements/1.1/"
   xmlns:cc="http://creativecommons.org/ns#"
   xmlns:rdf="http://www.w3.org/1999/02/22-rdf-syntax-ns#"
   xmlns:svg="http://www.w3.org/2000/svg"
   xmlns="http://www.w3.org/2000/svg"
   xmlns:sodipodi="http://sodipodi.sourceforge.net/DTD/sodipodi-0.dtd"
   xmlns:inkscape="http://www.inkscape.org/namespaces/inkscape"
   version="1.1"
   id="Capa_1"
   x="0px"
   y="0px"
   viewBox="0 0 861 262"
   style="enable-background:new 0 0 861 262;"
   xml:space="preserve"
   inkscape:version="0.91 r13725"
   sodipodi:docname="routes2.svg"><metadata
     id="metadata3994"><rdf:RDF><cc:Work
         rdf:about=""><dc:format>image/svg+xml</dc:format><dc:type
           rdf:resource="http://purl.org/dc/dcmitype/StillImage" /><dc:title></dc:title></cc:Work></rdf:RDF></metadata><defs
     id="defs3992" /><sodipodi:namedview
     pagecolor="#ffffff"
     bordercolor="#666666"
     borderopacity="1"
     objecttolerance="10"
     gridtolerance="10"
     guidetolerance="10"
     inkscape:pageopacity="0"
     inkscape:pageshadow="2"
     inkscape:window-width="1233"
     inkscape:window-height="1006"
     id="namedview3990"
     showgrid="false"
     inkscape:zoom="1.2392567"
     inkscape:cx="304.01272"
     inkscape:cy="131"
     inkscape:window-x="47"
     inkscape:window-y="18"
     inkscape:window-maximized="1"
     inkscape:current-layer="Capa_1" /><style
     type="text/css"
     id="style3694">
	.st0{fill-rule:evenodd;clip-rule:evenodd;}
	.st1{fill-rule:evenodd;clip-rule:evenodd;fill:#D60E1B;}
	.st2{fill-rule:evenodd;clip-rule:evenodd;fill:#FFFFFF;}
	.st3{fill:#020202;}
	.st4{fill:none;stroke:#FFFFFF;stroke-width:0.8587;}
	.st5{fill:none;stroke:#000000;stroke-width:0.8587;}
	.st6{fill:#FFFFFF;}
	.st7{fill:#211915;}
</style><path
     class="st0"
     d="M41.2,135.3c0,11-20.4,43.3-20.4,43.3S0.5,146.3,0.5,135.3c0-11,9.2-19.9,20.4-19.9S41.2,124.3,41.2,135.3  L41.2,135.3z M20.8,120.4c8.8,0,15.9,6.9,15.9,15.5c0,8.5-7.1,15.5-15.9,15.5c-8.8,0-15.9-7-15.9-15.5  C5,127.3,12.1,120.4,20.8,120.4L20.8,120.4z"
     id="path3696" /><path
     class="st0"
     d="M861.2,20.3c0,11-20.4,43.3-20.4,43.3s-20.4-32.3-20.4-43.3s9.2-19.9,20.4-19.9S861.2,9.3,861.2,20.3  L861.2,20.3z M840.8,5.4c8.8,0,15.9,6.9,15.9,15.5c0,8.5-7.1,15.5-15.9,15.5c-8.8,0-15.9-7-15.9-15.5C825,12.3,832.1,5.4,840.8,5.4  L840.8,5.4z"
     id="path3698" /><g
     id="g3700"><path
       class="st1"
       d="M433,216.1l-10.6-18.4c-1.1-1.8-1.6-3.9-1.6-6.1c0-6.8,5.5-12.2,12.3-12.2c6.8,0,12.2,5.4,12.2,12.2   c0,2.3-0.7,4.5-1.8,6.4L433,216.1z"
       id="path3702" /><path
       class="st2"
       d="M433.1,184.9c3.8,0,7,3.1,7,7c0,3.8-3.2,7-7,7c-3.8,0-7-3.2-7-7C426.2,187.9,429.3,184.9,433.1,184.9   L433.1,184.9z"
       id="path3704" /></g><g
     id="g3706"><path
       class="st1"
       d="M691,238.1l-10.6-18.4c-1.1-1.8-1.6-3.9-1.6-6.1c0-6.8,5.5-12.2,12.3-12.2s12.2,5.4,12.2,12.2   c0,2.3-0.7,4.5-1.8,6.4L691,238.1z"
       id="path3708" /><path
       class="st2"
       d="M691.1,206.9c3.8,0,7,3.1,7,7c0,3.8-3.2,7-7,7c-3.8,0-7-3.2-7-7C684.2,209.9,687.3,206.9,691.1,206.9   L691.1,206.9z"
       id="path3710" /></g><g
     id="g3712"><g
       id="g3714"><path
         class="st0"
         d="M625.7,206.5v38c0,2.2-1.7,4-4.2,4v4.2c0,2.5-1.7,4.2-4.2,4.2H613c-2.3,0-4-1.7-4-4.2v-4.2H592v4.2    c0,2.5-2,4.2-4.2,4.2h-4.2c-2.5,0-4.2-1.7-4.2-4.2v-4.2c-2.3,0-4.2-1.7-4.2-4v-38c0-7,5.7-12.7,12.7-12.7H613    C619.9,193.8,625.7,199.5,625.7,206.5L625.7,206.5z M572.3,210.7h2.2v12.7h-2.2c-1,0-2-1-2-2v-8.7    C570.4,211.7,571.4,210.7,572.3,210.7L572.3,210.7z M628.4,210.7h-2.2v12.7h2.2c1,0,2-1,2-2v-8.7    C630.4,211.7,629.6,210.7,628.4,210.7L628.4,210.7z M621.4,206.5h-42.1v25.4h42.1V206.5z M592,202.3H609l-2-4.2h-13.2L592,202.3z     M581.1,237.1h5c1.2,0,2,0.7,2,1.7v3.5c0,1-0.7,1.7-2,1.7h-5c-1.3,0-2-0.7-2-1.7v-3.5C579.1,237.8,579.8,237.1,581.1,237.1    L581.1,237.1z M614.7,237.1h5.2c1,0,1.7,0.7,1.7,1.7v3.5c0,1-0.7,1.7-1.7,1.7h-5.2c-1,0-2-0.7-2-1.7v-3.5    C612.7,237.8,613.7,237.1,614.7,237.1L614.7,237.1z"
         id="path3716" /></g><path
       class="st0"
       d="M548.3,198.5h0.9c2.5,0,4.4,1.9,4.4,4.3l0,0c0,1.3-0.7,2.6-1.7,3.3v41.3c3.8,0.2,7.2,0.9,9.8,1.8   c3.3,1.3,5.4,3.2,5.4,5.3c0,2.1-2.1,4-5.4,5.3c-3.1,1.1-7.3,1.9-11.9,1.9c-4.6,0-8.9-0.8-11.9-1.9c-3.3-1.2-5.4-3.2-5.4-5.3   c0-2.1,2.1-3.9,5.4-5.3c2.2-0.8,4.9-1.3,7.9-1.6v-41.5c-1-0.8-1.7-2-1.7-3.3l0,0C543.9,200.4,545.9,198.5,548.3,198.5L548.3,198.5z    M549.6,259.9c4.4,0,8.4-0.7,11.3-1.8c2.7-1,4.2-2.2,4.2-3.5c0-1.3-1.5-2.6-4.2-3.5c-2.4-0.9-5.5-1.5-9.1-1.7v4.5   c0,0.7-0.3,1.3-0.7,1.8c-0.6,0.4-1.1,0.7-1.9,0.7h-0.5c-0.9,0-1.6-0.3-2.2-0.9c-0.6-0.6-1-1.3-1-2.2v-3.8c-2.8,0.3-5.3,0.9-7.3,1.6   c-2.6,1-4.2,2.2-4.2,3.5c0,1.3,1.6,2.6,4.2,3.5C541.2,259.2,545.2,259.9,549.6,259.9L549.6,259.9z"
       id="path3718" /><circle
       class="st0"
       cx="549"
       cy="207"
       r="11"
       id="circle3720" /></g><g
     id="g3722"><path
       class="st3"
       d="M282.3,172.6c0,10.1,8.2,18.4,18.4,18.4c10.1,0,18.4-8.2,18.4-18.4c0-10.1-8.2-18.4-18.4-18.4   C290.5,154.3,282.3,162.5,282.3,172.6z M286.5,172.6c0-7.8,6.3-14.1,14.1-14.1c7.8,0,14.1,6.3,14.1,14.1c0,7.8-6.3,14.1-14.1,14.1   C292.8,186.8,286.5,180.4,286.5,172.6z"
       id="path3724" /><g
       id="g3726"><polygon
         class="st3"
         points="300.4,173.6 303.8,171.6 283.4,138 272.2,138 272.2,141.9 281.2,141.9   "
         id="polygon3728" /></g><g
       id="g3730"><path
         class="st3"
         d="M258.9,154.5l28.6-5.1l2.8,3.2l-20.5,22h-30.5L258.9,154.5z M283.6,154l-22.8,4.1l-12.3,12.6h19.6L283.6,154z    "
         id="path3732" /></g><g
       id="g3734"><polygon
         class="st3"
         points="267.2,173.6 270.6,171.7 261.6,155.5 258.8,145.9 255,147 258,157.1   "
         id="polygon3736" /></g><rect
       x="250.1"
       y="143.9"
       class="st3"
       width="12.7"
       height="3.9"
       id="rect3738" /><path
       class="st3"
       d="M222,172.6c0,10.1,8.2,18.4,18.4,18.4c10.1,0,18.4-8.2,18.4-18.4c0-10.1-8.2-18.4-18.4-18.4   C230.2,154.3,222,162.5,222,172.6z M226.2,172.6c0-7.8,6.3-14.1,14.1-14.1c7.8,0,14.1,6.3,14.1,14.1c0,7.8-6.3,14.1-14.1,14.1   C232.6,186.8,226.2,180.4,226.2,172.6z"
       id="path3740" /></g><g
     id="g3742"><path
       class="st1"
       d="M137,224.1l-10.6-18.4c-1.1-1.8-1.6-3.9-1.6-6.1c0-6.8,5.5-12.2,12.3-12.2c6.8,0,12.2,5.4,12.2,12.2   c0,2.3-0.7,4.5-1.8,6.4L137,224.1z"
       id="path3744" /><path
       class="st2"
       d="M137.1,192.9c3.8,0,7,3.1,7,7c0,3.8-3.2,7-7,7c-3.8,0-7-3.2-7-7C130.2,195.9,133.3,192.9,137.1,192.9   L137.1,192.9z"
       id="path3746" /></g><g
     id="g3748"><ellipse
       cx="674.9"
       cy="75.4"
       rx="3.1"
       ry="2.8"
       id="ellipse3750" /><path
       d="M687.9,28.8l-12.7,0c-5.9,0-10.3,4.8-10.3,9.9v36.7c0,5,3.9,9.1,7.9,9.8L660.9,103h6.8l8.5-12.4h23.2l8.5,12.4h6.8   l-11.8-17.8c4-0.6,7.9-4.8,7.9-9.8V38.7c0-5.2-4.4-9.9-10.3-9.9L687.9,28.8L687.9,28.8z M682.8,30.9h10c0.9,0,1.7,0.8,1.7,1.7v2.9   c0,0.9-0.7,1.7-1.7,1.7h-10c-0.9,0-1.7-0.8-1.7-1.7v-2.9C681.1,31.6,681.9,30.9,682.8,30.9z M675.5,39.1h24.7   c3.3,0,5.1,2.4,5.1,5.1v6.6c0,3.2-2.3,5.1-5.1,5.1h-24.7c-2.8,0-5.2-1.9-5.1-5.1v-6.6C670.3,41.5,672.1,39.1,675.5,39.1z    M674.9,70.8c2.5,0,4.5,2,4.5,4.5c0,2.5-2,4.5-4.5,4.5c-2.5,0-4.5-2-4.5-4.5C670.4,72.9,672.4,70.8,674.9,70.8z M700.6,70.8   c2.5,0,4.5,2,4.5,4.5c0,2.5-2,4.5-4.5,4.5s-4.5-2-4.5-4.5C696.1,72.9,698.1,70.8,700.6,70.8z"
       id="path3752" /><path
       d="M683.7,27.7c-1.6,0-2.8-1.3-2.8-2.8c0-1.6,1.3-2.8,2.8-2.8c1.6,0,2.8,1.3,2.8,2.8C686.5,26.4,685.3,27.7,683.7,27.7z"
       id="path3754" /><path
       d="M691.2,27.7c1.6,0,2.8-1.3,2.8-2.8c0-1.6-1.3-2.8-2.8-2.8c-1.6,0-2.8,1.3-2.8,2.8C688.4,26.4,689.7,27.7,691.2,27.7z"
       id="path3756" /><g
       id="g3758"><g
         id="g3760"><line
           class="st4"
           x1="681.6"
           y1="72"
           x2="693.1"
           y2="72"
           id="line3762" /><line
           class="st4"
           x1="681.6"
           y1="75.3"
           x2="692.5"
           y2="75.3"
           id="line3764" /><line
           class="st4"
           x1="681.4"
           y1="78.4"
           x2="692.7"
           y2="78.6"
           id="line3766" /></g><line
         class="st5"
         x1="686.9"
         y1="38.7"
         x2="687.2"
         y2="56.7"
         id="line3768" /></g><g
       id="g3770"><ellipse
         cx="700.6"
         cy="75.3"
         rx="3.1"
         ry="2.9"
         id="ellipse3772" /><rect
         x="672.6"
         y="92.6"
         width="30.4"
         height="1.4"
         id="rect3774" /><rect
         x="670.2"
         y="96.4"
         width="35.2"
         height="1.2"
         id="rect3776" /><rect
         x="668.5"
         y="99.7"
         width="37.8"
         height="1.2"
         id="rect3778" /></g></g><g
     id="g3780"><polygon
       class="st6"
       points="376.3,74.4 376.3,74.4 376.3,74.4  "
       id="polygon3782" /><path
       d="M449,46.3C449,46.3,449,46.3,449,46.3l0.1,0c3.6,0.3,6,0.5,6.1,0.5c0.5,0,4.2,0,4.5,0.2c0.3,0.2,0.1,1.2,0.1,1.2l-0.5,0.6   H456l1.2,11.4l5.8-0.3c0,0,2.7,2.3,4.1,3.2c1.4,0.9,3.8,4,3.8,4l-0.4,2c0.4,0.2,0.8,2.4,0.8,2.4c0.4,0,1,0.5,1,0.5s0.7,4.4,0.7,4.9   c0,0.4-0.3,0.6-0.3,0.6c0.2,3.3-0.5,4.6-0.5,4.6c-2.2,3.5-7.2,3.7-7.2,3.7s2-6.3-4.1-11.4c-6.1-5.1-11.7-3.4-16.7-0.1   c-5,3.2-4.5,13.5-4.5,13.5L377,88c0,0,0.9-7.6-3.9-13.5c-4.8-6-11.7-5-17.1-1.6c-4.4,2.8-4.4,10.9-4.2,13.8c0,0.6,0.1,1,0.1,1   l-10.1-1.3c0,0-0.8-1.3-1.1-1.5c-0.3-0.1-0.2-1.6-0.2-1.6l-0.2-1.1l0.8-0.8c-0.6-0.5-0.5-3.6-0.5-3.6l-0.6-0.6c0,0,0-2.1,0.2-2.5   c0.2-0.5,0.6-0.4,0.6-0.4c-0.1-2,0.8-2.2,0.8-2.2s1.8-5.2,7.5-7.3c8.1-3.2,25.8-5.2,25.8-5.2l0.4,0.6h3.9c0,0,13.7-10.4,19.6-12   l-0.3-0.4l-0.9-0.6c3.8-2.2,14.8-2.7,24.8-2.6c6,0.1,16.4,0.8,23.9,1.5 M349.8,66.4c0,0-3.8,0.6-4.5,1c-0.7,0.4-3,3.8-3,3.8   l11.7-1.1C354,70.2,350.6,66.7,349.8,66.4z M376.3,74.4C376.3,74.4,376.3,74.4,376.3,74.4L376.3,74.4L376.3,74.4z M423.3,66.2   c0-0.5-0.5-0.7-0.5-0.7l-6.6,0.4c0,0-0.8,0.2-0.8,0.6c0,0.4,0.7,0.5,0.7,0.5l6.8-0.1C422.8,66.8,423.3,66.7,423.3,66.2z    M398.7,48.9c-7.7,3-11.1,6.4-11.1,6.4l-0.3,2.5c0,0,0.4-0.1,0.7,0.4c0.2,0.5,0.4,2.8,0.3,3.1c-0.1,0.3-1.5,1.1-1.5,1.1l-0.1,0.8   l35.7-2l1.8-14.4C424.2,46.7,406.4,45.9,398.7,48.9z M425.5,46.7l-0.5,14.4c0,0,27.8-0.4,28.8-1.7C454.1,59,444.7,47.1,425.5,46.7z   "
       id="path3784" /><path
       class="st6"
       d="M416,66.9c0,0-0.7-0.1-0.7-0.5c0-0.4,0.8-0.6,0.8-0.6l6.6-0.4c0,0,0.6,0.1,0.5,0.7c0,0.5-0.5,0.6-0.5,0.6   L416,66.9z"
       id="path3786" /><path
       d="M451.9,72.4c5.9,0,10.7,5,10.7,11.3c0,0.8-0.1,1.5-0.2,2.2c-1,5.2-5.3,9-10.5,9c-4.6,0-8.6-3.1-10.1-7.4   c-0.4-1.2-0.7-2.5-0.7-3.8C441.2,77.5,446,72.4,451.9,72.4z"
       id="path3788" /><path
       d="M364.5,72.4c5.9,0,10.7,5,10.7,11.3c0,1.4-0.3,2.8-0.7,4c-1.5,4.2-5.4,7.2-10,7.2c-5.1,0-9.3-3.7-10.5-8.7   c-0.2-0.8-0.3-1.7-0.3-2.6C353.7,77.5,358.5,72.4,364.5,72.4z"
       id="path3790" /><path
       class="st6"
       d="M364.3,76.6c3.9,0,7,3.3,7,7.4c0,0.9-0.2,1.8-0.5,2.6c-1,2.8-3.6,4.7-6.5,4.7c-3.3,0-6.1-2.4-6.8-5.7   c-0.1-0.5-0.2-1.1-0.2-1.7C357.3,79.9,360.4,76.6,364.3,76.6z"
       id="path3792" /><path
       class="st6"
       d="M452.1,76.6c3.9,0,7,3.3,7,7.4c0,0.9-0.2,1.8-0.5,2.6c-1,2.8-3.6,4.7-6.5,4.7c-3.3,0-6.1-2.4-6.8-5.7   c-0.1-0.5-0.2-1.1-0.2-1.7C445.1,79.9,448.2,76.6,452.1,76.6z"
       id="path3794" /></g><g
     id="g3796"><g
       id="g3798"><g
         id="g3800"><g
           id="g3802"><g
             id="g3804"><path
               class="st7"
               d="M29.8,191.6l-1.9-3c-2.6,1.7-5.2,3.3-7.8,4.9l1.9,3C24.6,194.9,27.2,193.3,29.8,191.6z"
               id="path3806" /><polygon
               class="st7"
               points="41.3,184.1 39.4,181.1 31.7,186.2 33.6,189.2      "
               id="polygon3808" /><rect
               x="43.3"
               y="175.8"
               transform="matrix(0.8343 -0.5514 0.5514 0.8343 -89.9681 55.8606)"
               class="st7"
               width="9.2"
               height="3.5"
               id="rect3810" /><polygon
               class="st7"
               points="64.2,169 62.3,166 54.6,171.1 56.5,174      "
               id="polygon3812" /><path
               class="st7"
               d="M75.8,161.7l-1.8-3c-2.6,1.6-5.3,3.2-7.9,4.9l1.9,3C70.6,164.9,73.2,163.4,75.8,161.7z"
               id="path3814" /><path
               class="st7"
               d="M87.6,154.8l-1.7-3.1c-2.7,1.5-5.4,3-8,4.7l1.8,3C82.3,157.8,85,156.3,87.6,154.8z"
               id="path3816" /><polygon
               class="st7"
               points="99.6,148.4 98,145.2 93.9,147.3 89.8,149.5 91.5,152.6 95.6,150.4      "
               id="polygon3818" /></g></g><g
           id="g3820"><g
             id="g3822"><path
               class="st7"
               d="M111.9,142.4l-1.5-3.2c-2.8,1.2-5.6,2.6-8.4,4l1.6,3.2C106.4,145,109.1,143.6,111.9,142.4z"
               id="path3824" /><path
               class="st7"
               d="M124.5,137.1l-1.3-3.3c-2.9,1.2-5.7,2.3-8.6,3.6l1.4,3.2C118.8,139.4,121.7,138.2,124.5,137.1z"
               id="path3826" /><polygon
               class="st7"
               points="137.3,132.4 136.2,129 131.8,130.5 127.4,132.2 128.7,135.5 133,133.9      "
               id="polygon3828" /><path
               class="st7"
               d="M150.3,128.3l-1-3.4c-3,0.9-5.9,1.8-8.9,2.7l1.1,3.4C144.5,130.1,147.4,129.1,150.3,128.3z"
               id="path3830" /><path
               class="st7"
               d="M163.5,124.9l-0.8-3.4l-4.5,1.1c-1.5,0.4-3,0.8-4.5,1.2l0.9,3.4c1.5-0.4,2.9-0.8,4.4-1.2L163.5,124.9z"
               id="path3832" /><polygon
               class="st7"
               points="176.9,122 176.2,118.6 167.1,120.4 167.9,123.9      "
               id="polygon3834" /><path
               class="st7"
               d="M190.3,119.8l-0.5-3.5c-3.1,0.4-6.1,1-9.2,1.5l0.6,3.5C184.3,120.8,187.3,120.2,190.3,119.8z"
               id="path3836" /></g></g><g
           id="g3838"><g
             id="g3840"><path
               class="st7"
               d="M203.9,118.2l-0.4-3.5l-4.6,0.5c-1.5,0.2-3.1,0.4-4.6,0.6l0.5,3.5c1.5-0.2,3-0.4,4.5-0.6L203.9,118.2z"
               id="path3842" /><path
               class="st7"
               d="M217.5,117l-0.2-3.5c-3.1,0.2-6.2,0.4-9.2,0.7l0.3,3.5C211.4,117.4,214.5,117.2,217.5,117z"
               id="path3844" /><polygon
               class="st7"
               points="231.2,116.3 231.1,112.7 221.8,113.1 222,116.7      "
               id="polygon3846" /><polygon
               class="st7"
               points="244.9,116 244.8,112.4 235.6,112.6 235.7,116.1      "
               id="polygon3848" /><polygon
               class="st7"
               points="258.5,116.1 258.6,112.6 249.4,112.5 249.3,116      "
               id="polygon3850" /><polygon
               class="st7"
               points="272.2,116.6 272.4,113.1 263.1,112.7 263,116.2      "
               id="polygon3852" /><polygon
               class="st7"
               points="285.9,117.4 286.1,113.9 276.9,113.3 276.7,116.8      "
               id="polygon3854" /></g></g><g
           id="g3856"><g
             id="g3858"><polygon
               class="st7"
               points="299.5,118.5 299.9,115 290.6,114.2 290.4,117.7      "
               id="polygon3860" /><polygon
               class="st7"
               points="313.1,120 313.6,116.5 304.4,115.4 304,119      "
               id="polygon3862" /><path
               class="st7"
               d="M326.7,121.9l0.5-3.5c-3.1-0.5-6.1-1-9.2-1.4l-0.5,3.5C320.6,120.9,323.6,121.4,326.7,121.9z"
               id="path3864" /><polygon
               class="st7"
               points="340.1,124.2 340.8,120.7 336.3,119.9 334,119.4 331.7,119.1 331.1,122.6 333.4,122.9 335.6,123.4             "
               id="polygon3866" /><path
               class="st7"
               d="M353.5,127l0.8-3.5c-3-0.7-6-1.4-9-2l-0.7,3.5C347.6,125.6,350.5,126.4,353.5,127z"
               id="path3868" /><polygon
               class="st7"
               points="366.8,130.2 367.7,126.8 363.2,125.6 361,125.1 358.7,124.5 357.9,128 360.1,128.5 362.4,129.1             "
               id="polygon3870" /><path
               class="st7"
               d="M380,133.8l1-3.4c-3-0.8-5.9-1.7-8.9-2.5l-0.9,3.4C374.1,132.1,377.1,133,380,133.8z"
               id="path3872" /></g></g><g
           id="g3874"><g
             id="g3876"><polygon
               class="st7"
               points="393.1,137.7 394.2,134.4 385.3,131.7 384.3,135.1      "
               id="polygon3878" /><polygon
               class="st7"
               points="406.2,141.9 407.3,138.5 398.5,135.7 397.4,139.1      "
               id="polygon3880" /><rect
               x="413.7"
               y="138.3"
               transform="matrix(0.3029 -0.953 0.953 0.3029 153.3817 495.585)"
               class="st7"
               width="3.5"
               height="9.2"
               id="rect3882" /><path
               class="st7"
               d="M432.4,150.1l1-3.4c-2.9-0.9-5.9-1.8-8.8-2.7l-1.1,3.4C426.6,148.3,429.5,149.3,432.4,150.1z"
               id="path3884" /><path
               class="st7"
               d="M445.7,154l1-3.4c-3-0.8-5.9-1.7-8.8-2.6l-1,3.4C439.7,152.3,442.7,153.2,445.7,154z"
               id="path3886" /><polygon
               class="st7"
               points="459,157.5 459.8,154.1 455.4,153 451,151.8 450,155.2 454.5,156.4      "
               id="polygon3888" /><path
               class="st7"
               d="M472.4,160.6l0.7-3.5c-3-0.6-6-1.2-9-2l-0.8,3.4C466.4,159.4,469.4,160,472.4,160.6z"
               id="path3890" /></g></g><g
           id="g3892"><g
             id="g3894"><path
               class="st7"
               d="M486,163.3l0.6-3.5c-3-0.5-6-1-9-1.7l-0.7,3.5C479.9,162.3,482.9,162.8,486,163.3z"
               id="path3896" /><path
               class="st7"
               d="M499.6,165.5l0.5-3.5l-4.5-0.6c-1.5-0.2-3-0.5-4.5-0.8l-0.6,3.5c1.5,0.3,3,0.6,4.6,0.8L499.6,165.5z"
               id="path3898" /><path
               class="st7"
               d="M513.3,167.2l0.4-3.5c-1.5-0.2-3-0.3-4.6-0.5l-4.5-0.6l-0.5,3.5l4.6,0.6       C510.2,166.9,511.7,167,513.3,167.2z"
               id="path3900" /><path
               class="st7"
               d="M527,168.4l0.2-3.5c-3.1-0.1-6.1-0.5-9.1-0.8l-0.3,3.5C520.9,168,523.9,168.3,527,168.4z"
               id="path3902" /><polygon
               class="st7"
               points="540.8,169.1 540.9,165.6 538.6,165.6 536.3,165.4 531.7,165.1 531.5,168.7 536.2,169 538.5,169.1             "
               id="polygon3904" /><polygon
               class="st7"
               points="554.6,169.4 554.6,165.8 545.4,165.7 545.3,169.2      "
               id="polygon3906" /><polygon
               class="st7"
               points="568.4,169 568.2,165.5 559.1,165.7 559.1,169.3      "
               id="polygon3908" /></g></g><g
           id="g3910"><g
             id="g3912"><polygon
               class="st7"
               points="582.2,168.2 581.9,164.6 572.7,165.3 572.9,168.8      "
               id="polygon3914" /><path
               class="st7"
               d="M595.9,166.9l-0.4-3.5c-3,0.3-6.1,0.8-9.1,0.9l0.3,3.5C589.8,167.7,592.8,167.2,595.9,166.9z"
               id="path3916" /><path
               class="st7"
               d="M609.6,165.2l-0.5-3.5c-1.5,0.3-3,0.4-4.6,0.6l-4.6,0.5l0.4,3.5l4.6-0.5       C606.5,165.7,608.1,165.5,609.6,165.2z"
               id="path3918" /><polygon
               class="st7"
               points="623.2,163 622.6,159.5 613.5,161 614.1,164.5      "
               id="polygon3920" /><polygon
               class="st7"
               points="636.7,160.4 636,156.9 627,158.8 627.7,162.3      "
               id="polygon3922" /><polygon
               class="st7"
               points="650.2,157.4 649.4,154 647.1,154.6 644.9,155 640.4,156 641.2,159.4 645.7,158.5 647.9,158             "
               id="polygon3924" /><polygon
               class="st7"
               points="663.5,154 662.6,150.5 653.7,152.8 654.6,156.3      "
               id="polygon3926" /></g></g><g
           id="g3928"><g
             id="g3930"><path
               class="st7"
               d="M676.8,150.1l-1-3.4l-4.4,1.4c-1.5,0.4-2.9,0.9-4.4,1.3l1,3.4c1.5-0.4,3-0.9,4.4-1.3L676.8,150.1z"
               id="path3932" /><polygon
               class="st7"
               points="689.9,146.1 688.8,142.7 680.1,145.4 681.1,148.8      "
               id="polygon3934" /><polygon
               class="st7"
               points="702.9,141.5 701.7,138.2 693.1,141.3 694.2,144.6      "
               id="polygon3936" /><path
               class="st7"
               d="M715.9,136.8l-1.3-3.3c-1.4,0.6-2.9,1.1-4.3,1.6l-4.3,1.6l1.2,3.3l4.4-1.6       C713,137.9,714.5,137.4,715.9,136.8z"
               id="path3938" /><polygon
               class="st7"
               points="728.6,131.5 727.3,128.3 718.8,131.8 720.1,135      "
               id="polygon3940" /><path
               class="st7"
               d="M741.3,126.2l-1.4-3.2c-2.8,1.3-5.6,2.5-8.5,3.6l1.4,3.3C735.7,128.7,738.5,127.5,741.3,126.2z"
               id="path3942" /><polygon
               class="st7"
               points="753.8,120.4 752.3,117.2 744,121.1 745.4,124.3      "
               id="polygon3944" /></g></g><g
           id="g3946"><g
             id="g3948"><path
               class="st7"
               d="M766.3,114.5l-1.6-3.2c-1.4,0.7-2.7,1.4-4.1,2.1l-4.2,1.9l1.5,3.2l4.2-1.9       C763.5,116,764.9,115.2,766.3,114.5z"
               id="path3950" /><polygon
               class="st7"
               points="778.5,108.2 776.9,105.1 768.7,109.3 770.3,112.5      "
               id="polygon3952" /><path
               class="st7"
               d="M790.7,101.9l-1.7-3.1c-2.6,1.6-5.4,2.9-8.1,4.3l1.6,3.1C785.3,104.8,788.1,103.4,790.7,101.9z"
               id="path3954" /><polygon
               class="st7"
               points="802.7,95.1 801,92 793,96.6 794.7,99.7      "
               id="polygon3956" /><polygon
               class="st7"
               points="814.7,88.3 812.9,85.3 804.9,89.8 806.7,92.9      "
               id="polygon3958" /><polygon
               class="st7"
               points="826.4,81.1 824.6,78.1 816.7,82.9 818.6,86      "
               id="polygon3960" /><polygon
               class="st7"
               points="838.1,73.9 836.2,70.9 828.4,75.7 830.3,78.8      "
               id="polygon3962" /></g></g></g></g></g><g
     id="g3964"><path
       class="st1"
       d="M568,86.1l-10.6-18.4c-1.1-1.8-1.6-3.9-1.6-6.1c0-6.8,5.5-12.2,12.3-12.2s12.2,5.4,12.2,12.2   c0,2.3-0.7,4.5-1.8,6.4L568,86.1z"
       id="path3966" /><path
       class="st2"
       d="M568.1,54.9c3.8,0,7,3.1,7,7c0,3.8-3.2,7-7,7c-3.8,0-7-3.2-7-7C561.2,57.9,564.3,54.9,568.1,54.9L568.1,54.9z"
       id="path3968" /></g><g
     id="g3970"><path
       class="st1"
       d="M253,75.1l-10.6-18.4c-1.1-1.8-1.6-3.9-1.6-6.1c0-6.8,5.5-12.2,12.3-12.2c6.8,0,12.2,5.4,12.2,12.2   c0,2.3-0.7,4.5-1.8,6.4L253,75.1z"
       id="path3972" /><path
       class="st2"
       d="M253.1,43.9c3.8,0,7,3.1,7,7c0,3.8-3.2,7-7,7c-3.8,0-7-3.2-7-7C246.2,46.9,249.3,43.9,253.1,43.9L253.1,43.9z"
       id="path3974" /></g><g
     id="g3976"><g
       id="g3978"><path
         d="M137.1,52.5c9.4,0,17.1-8.9,17.1-20c0-15.3-7.6-20-17.1-20c-9.4,0-17.1,4.7-17.1,20C120,43.6,127.6,52.5,137.1,52.5z"
         id="path3980" /><path
         d="M174.8,81.9l-8.6-19.4c-0.4-0.9-1.1-1.6-1.9-2.1l-13.4-7c-0.3-0.2-0.7-0.1-0.9,0.1c-3.8,2.9-8.2,4.4-12.9,4.4    c-4.6,0-9.1-1.5-12.9-4.4c-0.3-0.2-0.6-0.2-0.9-0.1l-13.4,7c-0.9,0.4-1.6,1.2-1.9,2.1l-8.6,19.4c-0.6,1.3-0.5,2.9,0.3,4.1    c0.8,1.2,2.1,2,3.6,2h67.5c1.5,0,2.8-0.7,3.6-2C175.2,84.8,175.3,83.3,174.8,81.9z"
         id="path3982" /></g></g><g
     id="g3984"><path
       class="st6"
       d="M139.3,66.2c-3,8.4,11.2,17.1,12.3,17.8V65.2C148.9,60.2,141.6,59.7,139.3,66.2z"
       id="path3986" /><path
       class="st6"
       d="M163.9,66.2c-2-5.6-7.5-6.1-10.8-3.1c-0.6,0.5-1.1,1.2-1.5,2V84c0.6-0.4,5.2-3.1,8.6-6.9   C163.1,73.9,165.3,70.1,163.9,66.2z"
       id="path3988" /></g><path
     style="fill:#ff0000"
     d="m 99.919745,85.43833 c -0.690474,-1.515426 -0.01422,-3.675766 3.978385,-12.709232 l 4.81025,-10.883456 7.40743,-4.139693 7.40742,-4.139693 3.76154,2.122355 c 5.411,3.053031 14.21608,3.053031 19.62709,0 l 3.76153,-2.122355 7.44579,4.139693 7.4458,4.139693 4.6904,10.742582 c 3.81908,8.746966 4.5515,11.107922 3.94269,12.709232 l -0.74772,1.966649 -36.34936,0 -36.34937,0 -0.831875,-1.825775 z m 57.730495,-5.554264 c 2.4988,-2.283764 5.06991,-5.170698 5.71357,-6.41541 2.96794,-5.739351 5.6e-4,-12.349256 -5.54394,-12.349256 -1.58879,0 -3.56557,0.612547 -4.39284,1.361216 -1.41292,1.278682 -1.6823,1.270377 -4.44274,-0.136975 -1.65337,-0.842936 -3.84441,-1.325037 -5.00965,-1.102287 -4.55539,0.870819 -6.67215,7.238148 -4.07553,12.259457 1.53781,2.973795 10.02153,10.535553 11.82009,10.535553 0.76327,0 3.43224,-1.868534 5.93104,-4.152298 z"
     id="path3996"
     inkscape:connector-curvature="0" /><path
     style="fill:#ff0000"
     d="M 15.044012,168.06863 C 8.3528378,156.3065 3.7206644,146.47006 1.9032517,140.16416 c -1.15546941,-4.00915 -1.22952783,-5.45722 -0.4514822,-8.8279 2.1197563,-9.18328 9.9048815,-15.31332 19.4478555,-15.31332 6.031065,0 10.19518,1.77603 14.232763,6.07041 6.210356,6.60534 6.987735,13.20389 2.788994,23.67357 -2.541353,6.33693 -14.601396,28.8994 -16.489372,30.84905 -0.750862,0.7754 -2.147982,-1.094 -6.387998,-8.54734 z m 13.630197,-18.41324 c 7.292891,-3.76773 10.346843,-13.19796 6.601261,-20.38387 -1.027591,-1.97144 -3.263755,-4.69485 -4.969255,-6.05202 -2.855042,-2.27193 -3.595509,-2.46758 -9.33888,-2.46758 -5.268536,0 -6.679009,0.3022 -9.075889,1.94457 -8.5949108,5.88933 -9.5786634,17.92048 -2.0404836,24.95482 4.5963846,4.28917 12.7250166,5.15461 18.8232466,2.00408 z"
     id="path3998"
     inkscape:connector-curvature="0" /><path
     style="fill:#0000ff"
     d="M 834.9244,52.76679 C 827.96158,40.583067 822.47755,28.935311 821.29796,23.825017 818.69217,12.536132 828.56557,0.89175013 840.70263,0.93974628 c 13.52724,0.0534934 22.70891,11.97662172 19.01304,24.68996072 -2.04224,7.02504 -17.33615,36.621493 -18.92258,36.618573 -0.24785,-4.57e-4 -2.88876,-4.267127 -5.86869,-9.48149 z m 14.85884,-18.707617 c 11.1219,-7.620844 8.45873,-24.8880513 -4.37139,-28.3428441 -12.3469,-3.3246745 -23.87245,8.0766181 -20.00644,19.7907481 1.22454,3.710395 5.23887,8.375226 8.46656,9.83853 3.87072,1.754827 12.48984,1.057967 15.91127,-1.286434 z"
     id="path4000"
     inkscape:connector-curvature="0" /><path
     style="fill:#0000ff"
     d="m 345.6911,86.671065 c -1.77526,-0.17696 -3.50247,-0.59036 -3.83825,-0.918668 -0.33577,-0.328307 -0.75815,-2.936667 -0.93862,-5.796356 -0.45641,-7.232335 0.64736,-8.812592 6.20761,-8.887358 2.31979,-0.0312 4.87088,-0.314466 5.66909,-0.629494 1.34331,-0.530163 1.31329,-0.700064 -0.40347,-2.283535 -1.02011,-0.940915 -2.58099,-1.86461 -3.46862,-2.052657 -4.37037,-0.92587 22.60465,-6.498527 27.61158,-5.70416 2.08559,0.330885 3.37794,-0.161611 6.56695,-2.502558 l 3.97036,-2.914514 0.54178,2.887905 c 0.34176,1.821777 0.18369,3.319367 -0.42819,4.056641 -0.53348,0.642804 -0.82744,1.287123 -0.65324,1.431818 0.43172,0.358612 35.45629,-1.684862 35.86387,-2.092443 0.41312,-0.413122 1.93816,-10.891283 1.95936,-13.462313 l 0.016,-1.938239 -9.88496,0.494714 c -5.43672,0.272093 -11.0602,0.845208 -12.49661,1.273589 -1.43642,0.42838 -2.80062,0.473131 -3.03157,0.09945 -0.81732,-1.322448 7.8874,-2.429576 19.19911,-2.441878 13.80515,-0.01501 40.91225,1.708459 40.91225,2.601207 0,0.351448 -0.72624,0.638997 -1.61387,0.638997 -1.79512,0 -1.9242,0.9308 -1.09099,7.867619 l 0.50885,4.236411 3.23397,0 c 4.29829,0 10.25914,4.626138 10.25914,7.961991 0,1.212966 0.43772,2.643116 0.97271,3.17811 1.21385,1.213842 1.09954,9.525999 -0.15172,11.033682 -0.50308,0.606168 -1.93958,1.459404 -3.19222,1.896079 -2.2388,0.780449 -2.28417,0.735107 -2.66751,-2.665888 -1.0091,-8.95271 -11.3004,-13.723141 -19.57279,-9.072776 -3.84652,2.162338 -6.04902,6.118419 -6.05077,10.868193 l -0.001,3.429475 -30.90043,0 -30.90043,0 -0.94283,-4.49499 c -1.77558,-8.465128 -6.03361,-12.706934 -12.76409,-12.715464 -7.69336,-0.0098 -12.44454,4.94264 -12.44691,12.974043 -0.001,3.547978 -0.23074,4.214368 -1.4134,4.100763 -0.77667,-0.07461 -2.86462,-0.280434 -4.63987,-0.457392 z m 77.67425,-20.56882 c -0.21139,-0.634169 -1.60936,-0.900374 -3.90018,-0.74268 -5.51294,0.379494 -5.85422,1.731157 -0.4371,1.731157 3.32394,0 4.57196,-0.284429 4.33728,-0.988477 z m 22.18529,-5.372988 c 4.3279,-0.349004 8.10818,-0.873827 8.40062,-1.166274 1.53795,-1.537944 -8.47502,-8.559257 -15.50614,-10.873253 -2.63894,-0.868493 -6.70446,-1.816642 -9.03448,-2.106996 l -4.23641,-0.527917 0,3.949845 c 0,2.172414 -0.23092,5.63457 -0.51315,7.693679 l -0.51315,3.743833 6.7669,-0.03918 c 3.72179,-0.02155 10.3079,-0.324731 14.63581,-0.673736 z"
     id="path4002"
     inkscape:connector-curvature="0" /><path
     style="fill:#800000"
     d=""
     id="path4004"
     inkscape:connector-curvature="0" /><path
     style="fill:#008000"
     d="m 232.54081,188.49504 c -6.39449,-3.1865 -9.90735,-8.77443 -9.90735,-15.75968 0,-10.12905 7.59255,-17.81256 17.68691,-17.8988 4.28103,-0.0366 7.59663,1.15268 12.42032,4.45497 1.24758,0.85409 1.74298,0.676 3.39085,-1.21894 1.86361,-2.14303 1.88992,-2.35067 0.76678,-6.05202 -0.63967,-2.10807 -1.16697,-3.92363 -1.17178,-4.03458 -0.005,-0.11095 -1.27966,-0.20174 -2.83301,-0.20174 -2.28631,0 -2.82427,-0.3074 -2.82427,-1.61387 0,-1.47041 0.53796,-1.61387 6.05201,-1.61387 5.51406,0 6.05202,0.14346 6.05202,1.61387 0,1.10323 -0.53796,1.61387 -1.7002,1.61387 -1.22384,0 -1.56201,0.36014 -1.20697,1.28537 0.27129,0.70696 0.71262,2.15944 0.98075,3.22774 0.26813,1.06831 0.91666,1.94238 1.44118,1.94238 1.33795,0 24.22357,-4.10291 24.51584,-4.39517 0.1317,-0.13171 -0.91813,-2.10164 -2.33296,-4.37763 l -2.57243,-4.13817 -4.31752,0 c -3.77957,0 -4.31753,-0.20108 -4.31753,-1.61387 0,-1.4467 0.53796,-1.61387 5.19358,-1.61387 l 5.19359,0 5.3673,8.90822 c 4.7636,7.90622 5.56358,8.8434 7.11218,8.33202 0.95968,-0.31691 3.60913,-0.54171 5.88766,-0.49956 9.67199,0.17892 17.241,8.20355 17.241,18.27881 0,8.64928 -8.63643,17.36485 -17.25549,17.41359 -15.95329,0.0902 -24.45205,-17.61399 -14.10065,-29.37379 2.35851,-2.67941 3.09051,-4.10765 2.7137,-5.29485 -0.28379,-0.89415 -0.80081,-1.62573 -1.14894,-1.62573 -0.34812,0 -4.89493,4.53901 -10.10402,10.08669 l -9.47107,10.08669 -5.48703,0 -5.48704,0 -0.51196,2.72901 c -0.80377,4.28446 -4.67108,8.90919 -9.43541,11.28335 -5.57059,2.77595 -10.35683,2.79698 -15.83004,0.0696 z m 11.48863,-2.06514 c 4.25859,-1.07232 8.95531,-5.34439 9.90862,-9.01274 l 0.67583,-2.60057 -7.26203,-0.23398 -7.26202,-0.23397 5.529,-5.5717 c 6.07747,-6.12439 6.13283,-6.71656 0.86188,-9.21779 -5.21807,-2.47614 -11.78616,-1.41425 -16.07903,2.59954 -7.98836,7.46906 -4.73092,21.19897 5.78131,24.36781 3.06586,0.92419 3.82989,0.91478 7.84644,-0.0966 z m 60.28117,0.0517 c 3.304,-0.91762 7.42182,-4.03241 8.84399,-6.68976 3.82592,-7.1488 1.12701,-16.3733 -5.82874,-19.92187 -3.20672,-1.63594 -9.99815,-2.17963 -10.81038,-0.86543 -0.2482,0.4016 1.18075,3.37722 3.17543,6.6125 2.66506,4.32261 3.36049,6.05137 2.62272,6.51989 -1.68726,1.07148 -1.91918,0.85152 -5.47028,-5.188 -1.8919,-3.21766 -3.51535,-5.94961 -3.60767,-6.07101 -0.64176,-0.84391 -3.18619,1.36572 -4.85838,4.2191 -4.70156,8.02261 -1.19619,17.9818 7.40903,21.04999 3.80088,1.3552 4.71957,1.39126 8.52428,0.33459 z m -49.39974,-15.57931 c 0,-0.15568 -0.4075,-1.45202 -0.90556,-2.88076 l -0.90556,-2.5977 -2.32218,2.22479 c -1.2772,1.22364 -2.32218,2.51997 -2.32218,2.88075 0,0.36079 1.45248,0.65597 3.22774,0.65597 1.77526,0 3.22774,-0.12738 3.22774,-0.28305 z m 8.43433,-5.16376 c -3.88607,-7.05165 -3.81017,-6.98814 -5.79789,-4.8523 -1.65889,1.78251 -1.66734,1.92758 -0.35243,6.05191 l 1.3472,4.22561 3.90239,0.0108 3.9024,0.0108 -3.00167,-5.44681 z m 13.78354,-4.0649 c 3.87219,-4.1219 6.90119,-7.63353 6.73111,-7.8036 -0.31373,-0.31373 -20.89963,3.3253 -21.28646,3.76287 -0.40884,0.46247 6.39188,11.96052 6.94936,11.74936 0.31111,-0.11784 3.73381,-3.58673 7.60599,-7.70863 z"
     id="path4006"
     inkscape:connector-curvature="0" /><path
     style="fill:#008080"
     d="m 581.35656,255.84895 c -0.9913,-0.57737 -1.41214,-1.83567 -1.41214,-4.22225 0,-2.75172 -0.34608,-3.55161 -1.8156,-4.19632 -1.80977,-0.79399 -1.8163,-0.86594 -2.03055,-22.3966 -0.23988,-24.10634 -0.16855,-24.49893 5.1941,-28.58996 l 2.96352,-2.26078 15.79858,0 c 17.69489,0 19.52782,0.47508 23.2727,6.03211 1.80602,2.67995 1.82813,3.01596 1.61662,24.5679 -0.21387,21.79094 -0.21943,21.85296 -2.03006,22.64733 -1.4111,0.61908 -1.8156,1.4602 -1.8156,3.77531 0,3.79179 -1.73465,5.51483 -5.55196,5.51483 -4.11282,0 -5.76744,-1.44213 -6.31189,-5.50131 l -0.45971,-3.42735 -8.56479,0.22792 -8.56479,0.22792 -0.24291,3.22775 c -0.13556,1.80145 -0.82772,3.67345 -1.56636,4.23641 -1.58399,1.20722 -6.50524,1.2868 -8.47916,0.13709 z m 6.49583,-12.20078 c 1.24826,-1.24826 1.24826,-4.88444 0,-6.13271 -0.53258,-0.53257 -2.53753,-0.96832 -4.45544,-0.96832 -2.93653,0 -3.63225,0.31852 -4.40629,2.01734 -0.68759,1.5091 -0.68759,2.52558 0,4.03468 0.77404,1.69881 1.46976,2.01733 4.40629,2.01733 1.91791,0 3.92286,-0.43574 4.45544,-0.96832 z m 33.6492,-3.06635 0,-3.63121 -3.48911,-0.25105 c -4.09074,-0.29433 -5.79064,0.82698 -5.79064,3.81968 0,3.1631 1.4933,4.20329 5.64434,3.93167 l 3.63541,-0.23788 0,-3.63121 z m 0.40347,-21.38379 0,-13.31443 -21.38379,0 -21.38378,0 0,13.31443 0,13.31443 21.38378,0 21.38379,0 0,-13.31443 z M 608.9941,201.79587 c 0,-0.47299 -0.3759,-1.56235 -0.83533,-2.4208 -0.72444,-1.35364 -1.73825,-1.56082 -7.6375,-1.56082 -5.89924,0 -6.91305,0.20718 -7.63749,1.56082 -1.63012,3.0459 -1.08331,3.28079 7.63749,3.28079 5.45903,0 8.47283,-0.3059 8.47283,-0.85999 z"
     id="path4808"
     inkscape:connector-curvature="0" /><path
     style="fill:#ffff00"
     d="m 667.36716,93.963109 c 4.16033,-6.200864 5.47249,-8.737904 4.65793,-9.005976 -0.62372,-0.205263 -2.31418,-1.549458 -3.75657,-2.9871 l -2.62254,-2.613894 0,-21.896338 c 0,-24.335909 0.13149,-25.000046 5.3841,-27.194729 3.70345,-1.547402 29.90978,-1.547402 33.61324,0 5.25261,2.194683 5.3841,2.85882 5.3841,27.194729 l 0,21.896338 -2.62254,2.613894 c -1.4424,1.437642 -3.13285,2.781837 -3.75657,2.9871 -0.81456,0.268072 0.4976,2.805112 4.65793,9.005976 l 5.79195,8.632771 -3.04405,-0.0306 c -2.76294,-0.0278 -3.32668,-0.43765 -6.10435,-4.438146 l -3.0603,-4.407526 -14.05279,0 -14.05279,0 -3.0603,4.407526 c -2.77768,4.000496 -3.34141,4.410356 -6.10435,4.438146 l -3.04405,0.0306 5.79195,-8.632771 z m 33.26885,-2.26086 c -0.69043,-1.799216 -24.90819,-1.799216 -25.59862,0 -0.40126,1.04566 1.3408,1.210403 12.79931,1.210403 11.4585,0 13.20056,-0.164743 12.79931,-1.210403 z M 677.80306,79.16636 c 1.96499,-1.051631 2.09504,-5.306235 0.22535,-7.372221 -1.90969,-2.11018 -4.72508,-1.828847 -6.68945,0.668454 -3.50469,4.455492 1.31856,9.457575 6.4641,6.703767 z m 26.11471,-0.432715 c 1.98926,-1.989265 1.60646,-5.735432 -0.74342,-7.275131 -2.75135,-1.802754 -5.61136,-0.938463 -6.85861,2.072665 -0.84867,2.048886 -0.79891,2.740855 0.31992,4.448408 1.54655,2.360324 5.28838,2.74779 7.28211,0.754058 z m -10.83599,-0.345829 c 0,-0.466229 -2.5553,-0.806935 -6.05202,-0.806935 -3.49672,0 -6.05201,0.340706 -6.05201,0.806935 0,0.46623 2.55529,0.806936 6.05201,0.806936 3.49672,0 6.05202,-0.340706 6.05202,-0.806936 z m 0,-3.227741 c 0,-0.46623 -2.5553,-0.806935 -6.05202,-0.806935 -3.49672,0 -6.05201,0.340705 -6.05201,0.806935 0,0.466229 2.55529,0.806935 6.05201,0.806935 3.49672,0 6.05202,-0.340706 6.05202,-0.806935 z m 0,-3.227741 c 0,-0.46623 -2.5553,-0.806936 -6.05202,-0.806936 -3.49672,0 -6.05201,0.340706 -6.05201,0.806936 0,0.466229 2.55529,0.806935 6.05201,0.806935 3.49672,0 6.05202,-0.340706 6.05202,-0.806935 z m 11.02928,-17.137311 c 0.9384,-0.939483 1.50559,-3.069357 1.71913,-6.455483 0.26871,-4.260934 0.0442,-5.401406 -1.43182,-7.272483 l -1.7505,-2.219072 -14.668,0.01236 c -8.06741,0.0068 -15.06755,0.279136 -15.55587,0.605201 -1.68009,1.121825 -2.74335,4.125415 -2.74335,7.749683 0,4.743505 1.15517,7.637059 3.41774,8.560998 1.00504,0.410415 8.07894,0.673009 15.71979,0.58354 11.97865,-0.140261 14.08536,-0.355815 15.29288,-1.564741 z m -9.41541,-20.78865 0,-3.227741 -6.85895,0 -6.85895,0 0,3.227741 0,3.227741 6.85895,0 6.85895,0 0,-3.227741 z"
     id="path4810"
     inkscape:connector-curvature="0" /><path
     style="fill:#88aa00"
     d="m 129.06696,49.481259 c -6.66114,-4.229185 -9.98665,-13.69447 -8.06446,-22.953609 1.83561,-8.84208 7.43548,-13.518419 16.14681,-13.483874 10.8605,0.04307 16.31831,6.207329 16.41684,18.541791 0.0704,8.81299 -3.52366,15.5906 -10.09226,19.031827 -3.78287,1.981805 -10.30631,1.467365 -14.40693,-1.136135 z"
     id="path4812"
     inkscape:connector-curvature="0" /><path
     style="fill:#ac9393"
     d="m 100.39235,85.246554 c -0.534965,-2.131471 0.13849,-4.139417 5.41276,-16.138494 l 3.19225,-7.262418 7.32404,-3.930029 7.32404,-3.930029 3.33784,1.911678 c 4.78749,2.741938 14.62581,2.743537 19.98526,0.0033 l 3.73647,-1.910454 6.87404,3.74704 c 3.78072,2.060872 7.2337,4.1915 7.67329,4.734729 0.94135,1.163278 7.36703,16.144676 8.28245,19.310419 0.34735,1.201214 0.4375,2.926038 0.20034,3.832943 -0.42618,1.629686 -0.85335,1.648914 -36.6338,1.648914 l -36.20261,0 -0.50637,-2.017551 z m 57.33964,-5.362488 c 5.27201,-4.818322 6.88388,-7.535628 6.88388,-11.604941 0,-2.158548 -0.61892,-3.545332 -2.35874,-5.285152 -2.66292,-2.66292 -4.68548,-2.930298 -8.24443,-1.089895 -2.23589,1.156226 -2.74119,1.153791 -5.69336,-0.02743 -1.78184,-0.71295 -3.91828,-1.080903 -4.74764,-0.817674 -2.75886,0.875629 -4.77776,4.381645 -4.77776,8.297039 0,3.448583 0.32039,3.981907 5.50942,9.170934 3.29622,3.296225 6.18749,5.509421 7.19739,5.509421 0.92838,0 3.73244,-1.868534 6.23124,-4.152298 z"
     id="path4814"
     inkscape:connector-curvature="0" /><path
     style="fill:#ff0000"
     d="m 146.30834,79.557242 c -5.68135,-4.764115 -7.92123,-9.978439 -6.20622,-14.447706 0.69625,-1.814398 4.74224,-3.763643 6.50832,-3.13553 3.87581,1.378448 4.28753,2.501682 4.28753,11.697264 0,4.813172 -0.27234,8.744116 -0.60521,8.73543 -0.33286,-0.0087 -2.12585,-1.290943 -3.98442,-2.849458 z"
     id="path4816"
     inkscape:connector-curvature="0" /><path
     style="fill:#ff0000"
     d="m 101.04819,83.431162 c 0.21475,-2.134898 2.13702,-7.731585 4.33908,-12.633225 l 3.95353,-8.800283 7.17537,-3.836216 7.17538,-3.836215 3.31478,1.742871 c 4.6813,2.461368 15.56963,2.43536 20.30986,-0.04851 l 3.27718,-1.717233 6.445,3.528232 c 3.54474,1.940527 7.02453,4.18245 7.73286,4.982049 1.83018,2.065995 8.04604,17.032193 8.51011,20.490147 l 0.38887,2.897623 -9.16705,0.528182 c -5.04188,0.290501 -21.46858,0.529834 -36.50378,0.531852 l -27.33674,0.0037 0.38555,-3.832943 z m 56.73944,-3.597953 c 5.18668,-4.740329 6.56363,-7.088633 6.69263,-11.413855 0.16842,-5.647069 -5.69147,-9.472787 -10.53725,-6.879403 -1.26991,0.679635 -2.78925,0.64112 -6.10708,-0.154815 l -4.41661,-1.059528 -2.31269,2.588352 c -1.82914,2.047162 -2.31269,3.357748 -2.31269,6.268149 0,3.468684 0.31248,3.991334 5.44681,9.110023 3.20231,3.192558 6.19111,5.473965 7.25303,5.536371 1.14028,0.06701 3.46079,-1.406037 6.29385,-3.995294 z"
     id="path4818"
     inkscape:connector-curvature="0" /><path
     style="fill:#ff0000"
     d="m 151.7049,74.103128 c 0,-10.019263 0.45758,-11.137654 5.02304,-12.276998 1.77964,-0.444123 2.66408,-0.0834 4.63988,1.892397 3.96284,3.96284 3.12979,8.374534 -2.67801,14.182329 -1.949,1.949003 -4.31792,3.958027 -5.26427,4.464498 -1.70938,0.914828 -1.72064,0.860742 -1.72064,-8.262226 z"
     id="path4820"
     inkscape:connector-curvature="0" /><path
     style="fill:#6c5353"
     d="m 101.26376,84.641565 c 0.93767,-4.692744 3.6216,-12.192515 6.28089,-17.550843 2.49887,-5.035099 2.87206,-5.386171 9.32181,-8.769371 l 6.71872,-3.524291 3.34763,1.506952 c 4.63389,2.085973 15.8551,2.096777 20.45856,0.0197 3.14578,-1.419378 3.42071,-1.423327 6.02395,-0.08654 8.02861,4.122782 11.15273,6.770197 13.49165,11.432972 2.96488,5.910666 6.85339,17.173747 6.16653,17.861351 -0.59491,0.595551 -32.5267,1.531947 -56.33267,1.651949 l -16.00109,0.08066 0.52402,-2.62254 z m 56.61937,-4.830616 c 2.45727,-2.323978 4.97738,-5.210913 5.60025,-6.41541 1.75199,-3.387984 1.42019,-7.494315 -0.81553,-10.092762 -1.8672,-2.170146 -2.26054,-2.266504 -9.48149,-2.322745 -4.14341,-0.03227 -8.13761,-0.331442 -8.87601,-0.664825 -2.13833,-0.965452 -5.51641,4.638444 -5.51641,9.151174 0,3.40818 0.32013,3.928127 5.59826,9.092439 3.35847,3.286045 6.2834,5.477544 7.31072,5.477544 0.95849,0 3.67954,-1.860385 6.18021,-4.225415 z"
     id="path4822"
     inkscape:connector-curvature="0" /><path
     style="fill:#008000"
     d="m 685.12022,71.362853 c 0.99858,-0.192336 2.63263,-0.192336 3.63121,0 0.99858,0.192335 0.18156,0.3497 -1.81561,0.3497 -1.99716,0 -2.81418,-0.157365 -1.8156,-0.3497 z"
     id="path4824"
     inkscape:connector-curvature="0" /><path
     style="fill:#008000"
     d="m 662.64352,102.30138 c 0,-0.25694 2.17872,-3.785177 4.84161,-7.840529 2.66289,-4.055352 4.84161,-7.804615 4.84161,-8.331694 0,-0.52708 -1.48064,-2.393725 -3.29031,-4.1481 l -3.29032,-3.189773 0.27496,-21.787254 c 0.19294,-15.289134 0.57077,-22.30949 1.26678,-23.538235 1.74071,-3.07306 5.96431,-3.830463 21.25093,-3.810853 12.64229,0.01622 14.49229,0.192016 16.91583,1.607436 1.49662,0.874074 2.97069,2.484511 3.27571,3.578747 0.30502,1.094237 0.59077,11.685895 0.63501,23.537017 l 0.0804,21.547495 -3.22774,2.593883 c -1.77526,1.426636 -3.22774,2.853471 -3.22774,3.170744 0,0.317274 2.3398,4.150272 5.19956,8.517773 2.85976,4.367502 5.09649,8.043993 4.9705,8.169983 -0.12599,0.12598 -1.40783,-0.007 -2.84854,-0.29483 -1.97113,-0.39423 -3.2513,-1.4905 -5.17223,-4.42925 l -2.55276,-3.905355 -14.55433,-0.0145 -14.55432,-0.0145 -3.01217,4.034676 c -1.65669,2.219072 -3.52011,4.034676 -4.14092,4.034676 -0.62082,0 -1.70314,0.22041 -2.40516,0.4898 -0.70202,0.26939 -1.2764,0.27958 -1.2764,0.0226 z m 37.7267,-10.397397 c -0.48723,-1.472545 -11.60356,-2.456595 -18.90068,-1.673145 -3.71984,0.399378 -6.32214,1.066892 -6.52273,1.673145 -0.25779,0.779103 2.6353,1.008669 12.7117,1.008669 10.07641,0 12.9695,-0.229566 12.71171,-1.008669 z M 678.62084,79.033365 c 1.39846,-1.398466 1.18948,-5.519176 -0.36715,-7.239226 -0.7345,-0.811622 -2.34796,-1.475676 -3.58545,-1.475676 -3.96609,0 -6.29669,5.612753 -3.49426,8.415182 1.49701,1.497011 6.06569,1.68089 7.44686,0.29972 z m 25.95493,-0.5925 c 2.06169,-3.852312 -0.21153,-8.122402 -4.32403,-8.122402 -3.85327,0 -6.03417,5.636848 -3.25583,8.415182 1.83353,1.833529 6.53917,1.651768 7.57986,-0.29278 z m -11.26871,-0.05305 c 0,-0.466229 -2.55529,-0.806935 -6.05201,-0.806935 -3.49672,0 -6.05202,0.340706 -6.05202,0.806935 0,0.46623 2.5553,0.806936 6.05202,0.806936 3.49672,0 6.05201,-0.340706 6.05201,-0.806936 z m 0,-3.227741 c 0,-0.46623 -2.55529,-0.806935 -6.05201,-0.806935 -3.49672,0 -6.05202,0.340705 -6.05202,0.806935 0,0.466229 2.5553,0.806935 6.05202,0.806935 3.49672,0 6.05201,-0.340706 6.05201,-0.806935 z m 0,-3.227741 c 0,-0.46623 -2.55529,-0.806936 -6.05201,-0.806936 -3.49672,0 -6.05202,0.340706 -6.05202,0.806936 0,0.466229 2.5553,0.806935 6.05202,0.806935 3.49672,0 6.05201,-0.340706 6.05201,-0.806935 z m 10.99874,-17.10641 c 2.09532,-2.098358 2.49907,-9.921161 0.68583,-13.28815 l -1.44855,-2.689789 -15.58956,0 c -15.28975,0 -15.61159,0.03492 -16.73456,1.815605 -1.85372,2.939462 -2.31356,5.377771 -1.738,9.215882 0.99799,6.655044 1.56923,6.856745 18.60357,6.568735 12.68193,-0.21442 15.05215,-0.451466 16.22127,-1.622283 z m -9.38487,-20.819551 0,-3.227741 -7.26242,0 -7.26241,0 0,3.227741 0,3.227741 7.26241,0 7.26242,0 0,-3.227741 z"
     id="path4826"
     inkscape:connector-curvature="0" /><path
     style="fill:#de8787"
     d="m 133.20745,50.846724 c -7.19752,-2.155705 -11.37518,-8.172378 -11.95574,-17.218672 -0.59517,-9.274014 2.60527,-16.25605 8.60315,-18.768503 3.85392,-1.614366 12.00587,-1.585363 15.17603,0.05399 8.21243,4.246809 10.8017,18.078044 5.28262,28.218405 -3.61049,6.633665 -10.43674,9.712281 -17.10606,7.714776 z"
     id="path4847"
     inkscape:connector-curvature="0" /><path
     style="fill:#0000ff"
     d="m 18.055505,172.59752 c -3.767913,-5.95 -12.2131699,-22.58176 -14.352243,-28.26476 -2.2911854,-6.08712 -2.6528765,-12.12105 -0.9676335,-16.1426 2.7149348,-6.47875 8.8306155,-10.87972 16.1622225,-11.63069 6.612273,-0.67729 10.773916,0.87449 15.5828,5.81045 7.492106,7.69009 7.540794,14.3364 0.215504,29.41857 -5.559599,11.44676 -12.798942,24.2385 -13.717506,24.2385 -0.413261,0 -1.728676,-1.54326 -2.923144,-3.42947 z m 7.976736,-21.62103 c 8.815092,-2.44819 13.48904,-12.82863 9.615501,-21.3552 -1.893297,-4.16759 -6.553117,-8.23927 -10.215792,-8.92639 -11.863752,-2.22565 -20.6719782,4.37972 -20.6719782,15.50211 0,11.10233 9.8560402,17.95007 21.2722692,14.77948 z"
     id="path4849"
     inkscape:connector-curvature="0" /><path
     style="fill:#000080"
     d="m 376.9315,81.912072 c -1.76328,-6.514096 -4.92858,-10.421634 -9.4222,-11.631639 -8.64194,-2.327035 -15.99747,3.634332 -15.99747,12.965324 l 0,3.211413 -3.83294,-0.01236 c -2.10812,-0.0068 -4.29447,-0.305281 -4.85856,-0.663299 -0.56409,-0.358018 -1.23232,-2.985085 -1.48496,-5.837925 -0.6171,-6.968471 0.26885,-8.080288 6.95423,-8.727176 5.89738,-0.57064 6.87109,-1.788719 3.20974,-4.015315 l -2.55168,-1.551773 2.69422,-0.852932 c 4.99926,-1.582654 15.56548,-3.490963 21.814,-3.939709 5.01697,-0.360302 6.87545,-0.887233 9.68165,-2.745011 l 3.47284,-2.299116 0.5697,2.130194 c 0.31334,1.171606 0.19385,2.832491 -0.26554,3.690855 -0.45938,0.858364 -0.66983,1.726073 -0.46766,1.928243 0.57674,0.576738 33.04284,-1.451606 35.01245,-2.18743 1.20274,-0.44933 1.86564,-1.502764 2.08993,-3.321159 0.31749,-2.573948 0.3328,-2.557842 0.45762,0.481108 l 0.12914,3.144209 13.51617,-0.446007 c 14.09307,-0.465044 16.34044,-0.835827 16.34044,-2.695941 0,-2.521322 -11.54068,-9.278942 -19.183,-11.232568 -4.53851,-1.160191 -4.42576,-1.172956 6.27203,-0.710066 9.61775,0.416157 19.77792,1.592014 15.93697,1.844417 -1.55619,0.102264 -1.77216,2.082448 -0.91177,8.359741 0.48418,3.532459 0.60355,3.664422 3.68891,4.078256 4.33397,0.581308 9.37594,4.029782 9.97295,6.821043 0.26087,1.219649 0.81229,3.051651 1.2254,4.071117 0.89009,2.196609 0.97887,9.065378 0.13353,10.331389 -0.5545,0.830435 -3.67744,2.743341 -4.47868,2.743341 -0.1984,0 -0.75651,-1.571793 -1.24024,-3.492874 -1.67025,-6.633189 -6.1029,-10.225027 -12.61858,-10.225027 -7.68726,0 -13.32236,5.447484 -13.32236,12.878819 l 0,3.259888 -30.54378,0 -30.54377,0 -1.44873,-5.352033 z M 423.32907,66.37012 c 0,-1.174749 -2.13214,-1.645582 -5.19854,-1.147974 -4.22769,0.686059 -3.49114,1.868576 1.16387,1.868576 2.21907,0 4.03467,-0.324271 4.03467,-0.720602 z"
     id="path4851"
     inkscape:connector-curvature="0" /></svg>