<?xml version="1.0" encoding="UTF-8" standalone="no"?>
<!-- Generator: Adobe Illustrator 21.0.2, SVG Export Plug-In . SVG Version: 6.00 Build 0)  -->

<svg
   xmlns:dc="http://purl.org/dc/elements/1.1/"
   xmlns:cc="http://creativecommons.org/ns#"
   xmlns:rdf="http://www.w3.org/1999/02/22-rdf-syntax-ns#"
   xmlns:svg="http://www.w3.org/2000/svg"
   xmlns="http://www.w3.org/2000/svg"
   xmlns:sodipodi="http://sodipodi.sourceforge.net/DTD/sodipodi-0.dtd"
   xmlns:inkscape="http://www.inkscape.org/namespaces/inkscape"
   version="1.1"
   id="Capa_1"
   x="0px"
   y="0px"
   viewBox="0 0 169 131"
   style="enable-background:new 0 0 169 131;"
   xml:space="preserve"
   inkscape:version="0.91 r13725"
   sodipodi:docname="smartRoutes2.svg"><metadata
     id="metadata5262"><rdf:RDF><cc:Work
         rdf:about=""><dc:format>image/svg+xml</dc:format><dc:type
           rdf:resource="http://purl.org/dc/dcmitype/StillImage" /><dc:title></dc:title></cc:Work></rdf:RDF></metadata><defs
     id="defs5260" /><sodipodi:namedview
     pagecolor="#ffffff"
     bordercolor="#666666"
     borderopacity="1"
     objecttolerance="10"
     gridtolerance="10"
     guidetolerance="10"
     inkscape:pageopacity="0"
     inkscape:pageshadow="2"
     inkscape:window-width="1086"
     inkscape:window-height="910"
     id="namedview5258"
     showgrid="false"
     inkscape:zoom="1.7633136"
     inkscape:cx="84.5"
     inkscape:cy="20.130872"
     inkscape:window-x="47"
     inkscape:window-y="18"
     inkscape:window-maximized="0"
     inkscape:current-layer="Capa_1" /><style
     type="text/css"
     id="style5172">
	.st0{fill-rule:evenodd;clip-rule:evenodd;}
	.st1{fill-rule:evenodd;clip-rule:evenodd;fill:#FFFFFF;}
	.st2{fill-rule:evenodd;clip-rule:evenodd;fill:#020202;}
	.st3{fill:#FFFFFF;}
	.st4{fill:#020202;}
</style><g
     id="g5174"><path
       class="st0"
       d="M17.1,7.8h-2.7c-0.2,0-0.4-0.1-0.5-0.2c-0.1-0.2-0.1-0.4-0.1-0.6l1.5-3.8c0.1-0.4,0.4-0.4,0.4-0.4   c0.1,0,0.4,0,0.5,0.4l1.4,3.8c0.1,0.2,0.1,0.4,0,0.6C17.4,7.6,17.2,7.8,17.1,7.8L17.1,7.8z"
       id="path5176" /><path
       class="st0"
       d="M23.2,10.8c-0.1,0.2-0.4,0.4-0.6,0.4c-0.1,0-0.2-0.1-0.4-0.2l-1.9-1.9c-0.1-0.1-0.2-0.4-0.2-0.5   c0.1-0.2,0.2-0.4,0.4-0.5l3.8-1.7c0.1,0,0.1,0,0.2,0c0.1,0,0.2,0,0.4,0.1c0,0.1,0.1,0.2,0,0.5L23.2,10.8z"
       id="path5178" /><path
       class="st0"
       d="M8.3,20.6c0.1-0.2,0.2-0.4,0.5-0.4c0.2,0,0.4,0,0.5,0.1l1.9,1.9c0.1,0.1,0.2,0.4,0.1,0.6   c0,0.1-0.1,0.2-0.4,0.4l-3.6,1.7C7.1,24.9,7,25,7,25c-0.1,0-0.2-0.1-0.4-0.2c0-0.1-0.1-0.2,0-0.5L8.3,20.6z"
       id="path5180" /><path
       class="st0"
       d="M9.2,11c-0.1,0.1-0.2,0.2-0.5,0.2c-0.2,0-0.4-0.1-0.5-0.4L6.6,7c-0.1-0.2,0-0.4,0-0.5C6.8,6.5,6.9,6.5,7,6.5   c0,0,0.1,0,0.2,0l3.6,1.7c0.2,0.1,0.4,0.2,0.4,0.5c0.1,0.1,0,0.4-0.1,0.5L9.2,11z"
       id="path5182" /><path
       class="st0"
       d="M3.4,15.2l3.8-1.4c0,0,0.1-0.1,0.2-0.1c0.2,0,0.5,0.4,0.5,0.6V17c0,0.4-0.2,0.6-0.5,0.6c-0.1,0-0.2,0-0.2,0   l-3.8-1.5C3,15.9,3,15.8,3,15.7C3,15.6,3,15.4,3.4,15.2L3.4,15.2z"
       id="path5184" /><path
       class="st0"
       d="M13,24.1c0.2-6.2,4-12.7,10.2-12.7c5.9,0,9.4,4.2,10.1,9.9c0.9-0.7,3.4-0.7,4.6-0.7c3.5,0,6.5,3,6.5,6.5   c-0.4,1.3-0.2,0.5,1.1,0c3.9,0,6.9,3.1,6.9,7c0,3.4-2.6,6.4-5.9,6.9c-0.2,0-0.6,0-0.8,0H13.1c-0.1,0-0.2,0-0.2,0   c-0.1,0-0.2,0-0.4,0c-5,0-9.2-4-9.2-9.1C3.4,26.9,8.3,24.5,13,24.1L13,24.1z"
       id="path5186" /><path
       class="st0"
       d="M15.7,9.1c1.2,0,2.4,0.4,3.3,0.8c-4.1,1.8-6.8,6.1-7.9,10.4c-1.2-1.2-1.9-2.9-1.9-4.6   C9.2,12,12.2,9.1,15.7,9.1L15.7,9.1z"
       id="path5188" /></g><g
     id="g5190"><path
       d="M24.3,60.1c-0.1-0.2-0.1-0.5-0.1-0.7c0-1.2,1-2.2,2.2-2.2c1,0,1.8,0.6,2,1.5c0.5,0,0.9,0.2,1.3,0.4c0.1-1.2,1.1-2,2.3-2   c1.2,0,2.2,0.9,2.3,2.1c0.5-0.6,1.3-0.9,2.1-0.9c1.6,0,2.8,1.3,2.8,2.9c0,0.2,0,0.4-0.1,0.6c0,0,0.1,0,0.1,0c1.2,0,2.2,1,2.2,2.3   c0,1.2-1,2.3-2.2,2.3c-0.4,0-0.8-0.1-1.1-0.3c-0.4,0.6-1,1-1.8,1c-1.1,0-2-0.8-2.1-1.9c-0.5,0.5-1.1,0.8-1.9,0.8   c-0.5,0-0.9-0.1-1.3-0.3c-0.4,0.7-1.1,1.3-2,1.3c-1.2,0-2.3-1-2.3-2.3c0,0,0,0,0-0.1c-0.1-0.1-0.2-0.1-0.3-0.2   c-0.5,0.6-1.1,0.9-1.9,0.9c-1.4,0-2.5-1.1-2.5-2.5C22.1,61.3,23.1,60.2,24.3,60.1z"
       id="path5192" /><polygon
       points="15.8,100.8 24,100.8 23,69.7 16.8,69.7  "
       id="polygon5194" /><path
       d="M12.8,101.3H25v14.4h35v12.9H25H4.8v-19.8L12.8,101.3z M52.2,123.5h4.3v-4.2h-4.3V123.5z M43.4,123.5h4.3v-4.2h-4.3V123.5z    M34.7,123.5H39v-4.2h-4.3V123.5z M25.9,123.5h4.3v-4.2h-4.3V123.5z M17.2,123.5h4.3v-4.2h-4.3V123.5z M8.4,123.5h4.3v-4.2H8.4   V123.5z"
       id="path5196" /><path
       d="M44,115.1h9V99.2l-9,4.5v-4.5l-9,4.5v-4.5l-9,4.5v11.4h9H44z M48.5,105.8c1.1,0,2,0.9,2,2c0,1.1-0.9,2-2,2   c-1.1,0-2-0.9-2-2C46.5,106.7,47.4,105.8,48.5,105.8z M39.5,105.8c1.1,0,2,0.9,2,2c0,1.1-0.9,2-2,2c-1.1,0-2-0.9-2-2   C37.6,106.7,38.4,105.8,39.5,105.8z M30.6,109.8c-1.1,0-2-0.9-2-2c0-1.1,0.9-2,2-2c1.1,0,2,0.9,2,2   C32.5,108.9,31.6,109.8,30.6,109.8z"
       id="path5198" /></g><g
     id="g5200"><path
       class="st0"
       d="M136.7,84.1c0-5.6-4.5-10.1-10-10.1c-5.6,0-10.1,4.5-10.1,10.1v22.6c-2.1,2.4-3.3,5.5-3.3,8.7   c0,7.3,6,13.3,13.3,13.3c7.4,0,13.4-6,13.4-13.3c0-3.3-1.1-6.3-3.3-8.7V84.1z"
       id="path5202" /><path
       class="st1"
       d="M126.6,125.1c-5.3,0-9.7-4.4-9.7-9.7c0-2.6,0.9-5,2.7-6.8c0.3-0.3,0.5-0.8,0.5-1.3V84.1c0-3.6,2.9-6.5,6.5-6.5   c3.6,0,6.5,2.9,6.5,6.5v23.3c0,0.5,0.2,0.9,0.5,1.3c1.7,1.8,2.7,4.2,2.7,6.8C136.4,120.8,132,125.1,126.6,125.1L126.6,125.1z"
       id="path5204" /><path
       class="st0"
       d="M129.7,109.7l0.1-16c0-1.6-1.4-3-3-3c-1.6,0-3,1.4-3,3l-0.2,16c-1.9,1-3.3,3.2-3.3,5.6c0,3.5,2.8,6.3,6.3,6.3   c3.5,0,6.3-2.8,6.3-6.3C133,112.9,131.6,110.7,129.7,109.7L129.7,109.7z"
       id="path5206" /><path
       class="st2"
       d="M99.5,87.5L99.5,87.5h8.5c1,0,1.8-0.9,1.8-1.9c0-1-0.8-1.8-1.8-1.8h-8.5c-1,0-1.8,0.8-1.8,1.8   C97.7,86.7,98.5,87.5,99.5,87.5L99.5,87.5z"
       id="path5208" /><path
       class="st2"
       d="M108,92.3L108,92.3h-8.5c-1,0-1.8,0.8-1.8,1.8c0,1,0.8,1.8,1.8,1.8h8.5c1,0,1.8-0.8,1.8-1.8   C109.8,93.1,109,92.3,108,92.3L108,92.3z"
       id="path5210" /><path
       class="st2"
       d="M108,100.8L108,100.8h-8.5c-1,0-1.8,0.9-1.8,1.8c0,1,0.8,1.9,1.8,1.9h8.5c1,0,1.8-0.9,1.8-1.9   C109.8,101.7,109,100.8,108,100.8L108,100.8z"
       id="path5212" /></g><g
     id="g5214"><g
       id="g5216"><g
         id="g5218"><path
           d="M157.1,7.1c0-0.6-1-1.3-1.9-1.3c-0.8,0-1.3,0.5-1.4,1l-1.8-3c-0.6-1-2.1-1.4-7.6-1.4c-5.5,0-7,0.4-7.6,1.4l-1.8,3     c-0.1-0.5-0.6-1-1.4-1c-0.9,0-1.9,0.7-1.9,1.3c0,0.6,1,1,1.9,1c0.1,0,0.2,0,0.2,0c-0.5,0.5-1.1,0.9-1.1,0.9     c-0.4,0.4-0.7,1.1-0.7,1.6v4.1c0,0.4,0.2,0.7,0.6,1v2.1c0,0.4,0.3,0.7,0.7,0.7h3c0.4,0,0.7-0.3,0.7-0.7v-0.9     c2.1,0.3,4.6,0.4,7.5,0.4c2.9,0,5.5-0.1,7.5-0.4v0.9c0,0.4,0.3,0.7,0.7,0.7h3c0.4,0,0.7-0.3,0.7-0.7v-2.1c0.4-0.3,0.6-0.6,0.6-1     v-4.1c0-0.5-0.3-1.2-0.7-1.6c0,0-0.5-0.4-1.1-0.9c0.1,0,0.2,0,0.2,0C156.1,8,157.1,7.7,157.1,7.1z M137.3,4.2c0.4-0.6,1.7-1,7-1     c5.3,0,6.6,0.4,7,1l1.8,3.2c0,0-2.3,0.5-8.8,0.5c-6.5,0-8.8-0.5-8.8-0.5L137.3,4.2z M137.9,10.6c-0.1,0.9-1.4,1.2-2.6,1.1     c-1.2-0.1-1.7-0.6-1.6-1.4c0.1-0.6,0.7-0.9,1.8-0.8C137.1,9.5,137.9,10,137.9,10.6z M149,14.7c-0.8,0.8-8.6,0.8-9.4,0     c-0.3-0.3-0.3-1,0-1.3c0.8-0.8,8.6-0.8,9.4,0C149.2,13.7,149.2,14.4,149,14.7z M153.3,11.6c-1.2,0.1-2.5-0.2-2.6-1.1     c-0.1-0.6,0.7-1.1,2.4-1.2c1.2-0.1,1.8,0.2,1.8,0.8C155,11.1,154.5,11.5,153.3,11.6z"
           id="path5220" /></g><ellipse
         class="st3"
         cx="144.4"
         cy="30.5"
         rx="24.6"
         ry="21.1"
         id="ellipse5222" /><g
         id="g5224"><path
           d="M161.6,16.3c0-0.8-1.3-1.7-2.6-1.7c-1.1,0-1.7,0.6-1.9,1.3l-2.5-4c-0.8-1.3-2.8-1.8-10.2-1.8s-9.4,0.6-10.2,1.8l-2.5,4     c-0.2-0.7-0.9-1.3-1.9-1.3c-1.3,0-2.6,0.9-2.6,1.7c0,0.8,1.3,1.3,2.6,1.3c0.1,0,0.2,0,0.3,0c-0.7,0.6-1.5,1.2-1.5,1.2     c-0.5,0.5-0.9,1.4-0.9,2.1v5.4c0,0.5,0.3,0.9,0.8,1.3v2.9c0,0.5,0.4,0.9,0.9,0.9h4c0.5,0,0.9-0.4,0.9-0.9v-1.2     c2.7,0.4,6.2,0.6,10.1,0.6c3.9,0,7.3-0.2,10.1-0.6v1.2c0,0.5,0.4,0.9,0.9,0.9h4c0.5,0,0.9-0.4,0.9-0.9v-2.9     c0.5-0.4,0.8-0.8,0.8-1.3V21c0-0.7-0.4-1.7-0.9-2.1c0,0-0.7-0.6-1.5-1.2c0.1,0,0.2,0,0.3,0C160.3,17.6,161.6,17.2,161.6,16.3z      M135.1,12.4c0.5-0.8,2.3-1.4,9.4-1.4c7.1,0,8.9,0.6,9.4,1.4l2.4,4.2c0,0-3,0.6-11.7,0.6c-8.7,0-11.7-0.6-11.7-0.6L135.1,12.4z      M135.9,21c-0.1,1.1-1.9,1.6-3.5,1.4c-1.6-0.1-2.3-0.8-2.2-1.9c0.1-0.8,0.9-1.3,2.4-1.1C134.9,19.6,136,20.2,135.9,21z      M150.8,26.5c-1.1,1.1-11.5,1.1-12.6,0c-0.3-0.3-0.3-1.3,0-1.7c1.1-1.1,11.5-1.1,12.6,0C151.1,25.2,151.1,26.1,150.8,26.5z      M156.5,22.4c-1.6,0.1-3.4-0.3-3.5-1.4c-0.1-0.8,1-1.4,3.2-1.6c1.6-0.1,2.4,0.3,2.4,1.1C158.8,21.6,158.1,22.3,156.5,22.4z"
           id="path5226" /></g><ellipse
         class="st3"
         cx="144.4"
         cy="39.7"
         rx="24.6"
         ry="21.1"
         id="ellipse5228" /><path
         d="M165.3,28.4c0-1-1.6-2.1-3.1-2.1c-1.3,0-2.1,0.7-2.3,1.6l-3-4.8c-1-1.5-3.4-2.2-12.4-2.2c-9,0-11.4,0.7-12.4,2.2l-3,4.8    c-0.2-0.8-1-1.6-2.3-1.6c-1.5,0-3.1,1.1-3.1,2.1c0,1,1.6,1.6,3.1,1.6c0.1,0,0.3,0,0.4,0c-0.9,0.8-1.8,1.5-1.8,1.5    c-0.6,0.6-1.1,1.7-1.1,2.6v6.6c0,0.6,0.3,1.1,1,1.6v3.5c0,0.6,0.5,1.1,1.1,1.1h4.8c0.6,0,1.1-0.5,1.1-1.1v-1.4    c3.3,0.5,7.5,0.7,12.2,0.7c4.7,0,8.9-0.2,12.2-0.7v1.4c0,0.6,0.5,1.1,1.1,1.1h4.8c0.6,0,1.1-0.5,1.1-1.1v-3.5c0.6-0.5,1-1,1-1.6    v-6.6c0-0.8-0.5-2-1.1-2.6c0,0-0.9-0.7-1.8-1.5c0.1,0,0.2,0,0.4,0C163.7,30,165.3,29.4,165.3,28.4z M133.1,23.7    c0.6-1,2.8-1.7,11.4-1.7c8.6,0,10.8,0.7,11.4,1.7l2.9,5.1c0,0-3.7,0.8-14.3,0.8c-10.6,0-14.3-0.8-14.3-0.8L133.1,23.7z M134,34.1    c-0.1,1.4-2.3,1.9-4.2,1.7c-1.9-0.2-2.8-0.9-2.6-2.3c0.1-1,1.1-1.5,3-1.4C132.8,32.4,134.1,33.1,134,34.1z M152.1,40.8    c-1.4,1.4-13.9,1.4-15.3,0c-0.4-0.4-0.4-1.6,0-2c1.4-1.4,13.9-1.4,15.3,0C152.5,39.2,152.5,40.4,152.1,40.8z M159.1,35.8    c-1.9,0.2-4.1-0.3-4.2-1.7c-0.1-1,1.2-1.7,3.9-2c1.9-0.2,2.9,0.4,3,1.4C161.9,34.9,161,35.7,159.1,35.8z"
         id="path5230" /></g><g
       id="g5232"><g
         id="g5234"><path
           d="M110.3,7.1c0-0.6-1-1.3-1.9-1.3c-0.8,0-1.3,0.5-1.4,1l-1.8-3c-0.6-1-2.1-1.4-7.6-1.4c-5.5,0-7,0.4-7.6,1.4l-1.8,3     c-0.1-0.5-0.6-1-1.4-1c-0.9,0-1.9,0.7-1.9,1.3c0,0.6,1,1,1.9,1c0.1,0,0.2,0,0.2,0C86.2,8.5,85.7,9,85.7,9C85.3,9.3,85,10,85,10.6     v4.1c0,0.4,0.2,0.7,0.6,1v2.1c0,0.4,0.3,0.7,0.7,0.7h3c0.4,0,0.7-0.3,0.7-0.7v-0.9c2.1,0.3,4.6,0.4,7.5,0.4     c2.9,0,5.5-0.1,7.5-0.4v0.9c0,0.4,0.3,0.7,0.7,0.7h3c0.4,0,0.7-0.3,0.7-0.7v-2.1c0.4-0.3,0.6-0.6,0.6-1v-4.1     c0-0.5-0.3-1.2-0.7-1.6c0,0-0.5-0.4-1.1-0.9c0.1,0,0.2,0,0.2,0C109.3,8,110.3,7.7,110.3,7.1z M90.4,4.2c0.4-0.6,1.7-1,7-1     c5.3,0,6.6,0.4,7,1l1.8,3.2c0,0-2.3,0.5-8.8,0.5c-6.5,0-8.8-0.5-8.8-0.5L90.4,4.2z M91,10.6c-0.1,0.9-1.4,1.2-2.6,1.1     c-1.2-0.1-1.7-0.6-1.6-1.4c0.1-0.6,0.7-0.9,1.8-0.8C90.3,9.5,91.1,10,91,10.6z M102.1,14.7c-0.8,0.8-8.6,0.8-9.4,0     c-0.3-0.3-0.3-1,0-1.3c0.8-0.8,8.6-0.8,9.4,0C102.4,13.7,102.4,14.4,102.1,14.7z M106.4,11.6c-1.2,0.1-2.5-0.2-2.6-1.1     c-0.1-0.6,0.7-1.1,2.4-1.2c1.2-0.1,1.8,0.2,1.8,0.8C108.1,11.1,107.6,11.5,106.4,11.6z"
           id="path5236" /></g><ellipse
         class="st3"
         cx="97.6"
         cy="30.5"
         rx="24.6"
         ry="21.1"
         id="ellipse5238" /><g
         id="g5240"><path
           d="M114.8,16.3c0-0.8-1.3-1.7-2.6-1.7c-1.1,0-1.7,0.6-1.9,1.3l-2.5-4c-0.8-1.3-2.8-1.8-10.2-1.8c-7.4,0-9.4,0.6-10.2,1.8     l-2.5,4c-0.2-0.7-0.9-1.3-1.9-1.3c-1.3,0-2.6,0.9-2.6,1.7c0,0.8,1.3,1.3,2.6,1.3c0.1,0,0.2,0,0.3,0c-0.7,0.6-1.5,1.2-1.5,1.2     C81.4,19.3,81,20.3,81,21v5.4c0,0.5,0.3,0.9,0.8,1.3v2.9c0,0.5,0.4,0.9,0.9,0.9h4c0.5,0,0.9-0.4,0.9-0.9v-1.2     c2.7,0.4,6.2,0.6,10.1,0.6c3.9,0,7.3-0.2,10.1-0.6v1.2c0,0.5,0.4,0.9,0.9,0.9h4c0.5,0,0.9-0.4,0.9-0.9v-2.9     c0.5-0.4,0.8-0.8,0.8-1.3V21c0-0.7-0.4-1.7-0.9-2.1c0,0-0.7-0.6-1.5-1.2c0.1,0,0.2,0,0.3,0C113.4,17.6,114.8,17.2,114.8,16.3z      M88.2,12.4c0.5-0.8,2.3-1.4,9.4-1.4c7.1,0,8.9,0.6,9.4,1.4l2.4,4.2c0,0-3,0.6-11.7,0.6c-8.7,0-11.7-0.6-11.7-0.6L88.2,12.4z      M89,21c-0.1,1.1-1.9,1.6-3.5,1.4c-1.6-0.1-2.3-0.8-2.2-1.9c0.1-0.8,0.9-1.3,2.4-1.1C88.1,19.6,89.1,20.2,89,21z M103.9,26.5     c-1.1,1.1-11.5,1.1-12.6,0c-0.3-0.3-0.3-1.3,0-1.7c1.1-1.1,11.5-1.1,12.6,0C104.3,25.2,104.3,26.1,103.9,26.5z M109.7,22.4     c-1.6,0.1-3.4-0.3-3.5-1.4c-0.1-0.8,1-1.4,3.2-1.6c1.6-0.1,2.4,0.3,2.4,1.1C111.9,21.6,111.2,22.3,109.7,22.4z"
           id="path5242" /></g><ellipse
         class="st3"
         cx="97.6"
         cy="39.7"
         rx="24.6"
         ry="21.1"
         id="ellipse5244" /><path
         d="M118.5,28.4c0-1-1.6-2.1-3.1-2.1c-1.3,0-2.1,0.7-2.3,1.6l-3-4.8c-1-1.5-3.4-2.2-12.4-2.2c-9,0-11.4,0.7-12.4,2.2l-3,4.8    c-0.2-0.8-1-1.6-2.3-1.6c-1.5,0-3.1,1.1-3.1,2.1c0,1,1.6,1.6,3.1,1.6c0.1,0,0.3,0,0.4,0c-0.9,0.8-1.8,1.5-1.8,1.5    c-0.6,0.6-1.1,1.7-1.1,2.6v6.6c0,0.6,0.3,1.1,1,1.6v3.5c0,0.6,0.5,1.1,1.1,1.1h4.8c0.6,0,1.1-0.5,1.1-1.1v-1.4    c3.3,0.5,7.5,0.7,12.2,0.7c4.7,0,8.9-0.2,12.2-0.7v1.4c0,0.6,0.5,1.1,1.1,1.1h4.8c0.6,0,1.1-0.5,1.1-1.1v-3.5c0.6-0.5,1-1,1-1.6    v-6.6c0-0.8-0.5-2-1.1-2.6c0,0-0.9-0.7-1.8-1.5c0.1,0,0.2,0,0.4,0C116.8,30,118.5,29.4,118.5,28.4z M86.2,23.7    c0.6-1,2.8-1.7,11.4-1.7c8.6,0,10.8,0.7,11.4,1.7l2.9,5.1c0,0-3.7,0.8-14.3,0.8c-10.6,0-14.3-0.8-14.3-0.8L86.2,23.7z M87.2,34.1    c-0.1,1.4-2.3,1.9-4.2,1.7c-1.9-0.2-2.8-0.9-2.6-2.3c0.1-1,1.1-1.5,3-1.4C86,32.4,87.3,33.1,87.2,34.1z M105.3,40.8    c-1.4,1.4-13.9,1.4-15.3,0c-0.4-0.4-0.4-1.6,0-2c1.4-1.4,13.9-1.4,15.3,0C105.7,39.2,105.7,40.4,105.3,40.8z M112.3,35.8    c-1.9,0.2-4.1-0.3-4.2-1.7c-0.1-1,1.2-1.7,3.9-2c1.9-0.2,2.9,0.4,3,1.4C115,34.9,114.2,35.7,112.3,35.8z"
         id="path5246" /></g><path
       class="st4"
       d="M119.8,47l1.1-44.5c0.1-0.1,0.6,0,0.6,0l1.4,44.5H119.8z"
       id="path5248" /><rect
       x="119.1"
       y="34.7"
       class="st3"
       width="4.6"
       height="2.3"
       id="rect5250" /><rect
       x="119.1"
       y="23.9"
       class="st3"
       width="4.6"
       height="2.3"
       id="rect5252" /><rect
       x="119.1"
       y="14.7"
       class="st3"
       width="4.6"
       height="2.3"
       id="rect5254" /><rect
       x="119.1"
       y="6.3"
       class="st3"
       width="4.6"
       height="2.3"
       id="rect5256" /></g><path
     style="fill:#0000ff"
     d="m 78.828859,44.323402 c 0,-1.229243 -0.255201,-2.39271 -0.567114,-2.585483 -0.311913,-0.192772 -0.567114,-2.26163 -0.567114,-4.597461 0,-3.801631 0.148668,-4.384746 1.417785,-5.560924 1.773827,-1.643927 1.780253,-2.034568 0.03347,-2.034568 -1.701362,0 -2.346466,-0.906234 -1.430637,-2.009741 0.840537,-1.012786 2.905029,-1.075225 3.866378,-0.116936 0.569258,0.567446 0.941895,0.425999 1.867556,-0.708893 1.082843,-1.327602 1.130706,-1.053078 0.213538,1.224773 -0.26391,0.655437 -0.0165,1.05626 0.814831,1.320115 1.580822,0.501734 24.269359,0.489513 26.276129,-0.01415 l 1.56605,-0.393053 -1.48335,-2.531148 c -0.81585,-1.392131 -1.36237,-2.652137 -1.21449,-2.800013 0.14788,-0.147876 0.8527,0.701563 1.56627,1.887642 0.71357,1.186079 1.35583,2.237991 1.42725,2.337581 0.0714,0.09959 0.62658,-0.129145 1.2337,-0.508299 1.5179,-0.94794 4.24542,-0.227745 4.00073,1.05638 -0.10189,0.534704 -0.75685,1.053738 -1.45547,1.15341 -1.58762,0.226508 -1.60338,0.762631 -0.0629,2.141117 1.13864,1.018917 1.18812,1.44439 0.87027,7.482829 -0.18536,3.521366 -0.4885,6.647582 -0.67364,6.947148 -0.18514,0.299567 -1.62146,0.544666 -3.19181,0.544666 -2.24229,0 -2.91091,-0.213043 -3.11473,-0.992449 -0.23723,-0.907163 -1.32921,-0.99245 -12.706973,-0.99245 -11.476631,0 -12.447443,0.0774 -12.447443,0.99245 0,0.824893 -0.526606,0.992449 -3.119127,0.992449 l -3.119128,0 0,-2.234987 z m 24.845881,-2.649121 c 2.05373,-0.410747 2.76323,-1.776676 1.55199,-2.987913 -1.04322,-1.043222 -10.289399,-1.597318 -13.354247,-0.800281 -2.478375,0.64452 -3.082528,2.713763 -1.032353,3.535842 1.501335,0.602005 10.22839,0.773595 12.83461,0.252352 z M 86.910235,35.387787 c 0.233934,-0.13124 0.425335,-0.740276 0.425335,-1.353414 0,-2.03728 -5.38772,-3.078441 -6.844821,-1.322742 -1.918778,2.311985 3.237246,4.461429 6.419486,2.676156 z m 27.788595,0.01172 c 0.94718,-0.557477 0.40039,-2.950449 -0.7582,-3.318173 -2.65734,-0.843407 -6.8725,1.002855 -5.89619,2.582562 0.88895,1.43834 4.73755,1.863785 6.65439,0.735611 z"
     id="path5264"
     inkscape:connector-curvature="0" /><path
     style="fill:#000080"
     d="m 125.62965,46.013725 c -0.18515,-0.299566 -0.48828,-3.425782 -0.67364,-6.947148 -0.31785,-6.038438 -0.26837,-6.463912 0.87027,-7.482829 1.54045,-1.378486 1.52469,-1.914609 -0.0629,-2.141117 -0.69861,-0.09967 -1.35357,-0.618706 -1.45546,-1.153409 -0.2447,-1.284126 2.48283,-2.004321 4.00072,-1.05638 0.60713,0.379154 1.1623,0.607888 1.23371,0.508298 0.0714,-0.09959 0.71368,-1.151501 1.42725,-2.33758 0.71357,-1.18608 1.41839,-2.035519 1.56627,-1.887643 0.14787,0.147876 -0.4026,1.414623 -1.22327,2.814993 l -1.49213,2.546127 1.7875,0.392599 c 2.28249,0.50132 24.48478,0.488489 26.07134,-0.01507 0.73463,-0.233161 1.06971,-0.687044 0.87013,-1.178621 -0.96458,-2.37582 -0.92704,-2.698233 0.15914,-1.366551 0.92566,1.134892 1.29829,1.276339 1.86755,0.708893 0.96135,-0.958289 3.02584,-0.89585 3.86638,0.116936 0.91583,1.103507 0.27072,2.009741 -1.43064,2.009741 -1.72702,0 -1.72397,0.175897 0.0335,1.933344 1.2598,1.259797 1.41779,1.890893 1.41779,5.663449 0,2.335116 -0.2552,4.403388 -0.56712,4.59616 -0.31191,0.192773 -0.56711,1.35624 -0.56711,2.585483 l 0,2.234987 -3.11913,0 c -2.59252,0 -3.11913,-0.167556 -3.11913,-0.992449 0,-0.915046 -0.97081,-0.99245 -12.44744,-0.99245 -11.37776,0 -12.46974,0.08529 -12.70697,0.99245 -0.20382,0.779406 -0.87244,0.992449 -3.11473,0.992449 -1.57036,0 -3.00667,-0.245099 -3.19181,-0.544664 z m 25.2227,-4.499682 c 1.01105,-0.281235 1.41778,-0.786495 1.41778,-1.761206 0,-1.134439 -0.38569,-1.450608 -2.26845,-1.859565 -3.60011,-0.781982 -12.04663,-0.230965 -13.13443,0.856836 -1.15879,1.158783 -0.65295,2.541637 1.04857,2.866593 2.1042,0.401859 11.38762,0.32819 12.93653,-0.102658 z m -17.06214,-6.623438 c 0.65077,-0.610072 0.66676,-0.914705 0.0848,-1.615927 -0.8742,-1.053352 -4.03138,-1.709588 -5.69088,-1.182882 -1.76648,0.560659 -1.37364,3.228255 0.55078,3.740125 1.75948,0.467998 3.99626,0.0515 5.05531,-0.941316 z m 27.82769,-0.0391 c 2.04957,-1.927349 -1.90844,-3.790076 -5.30742,-2.497788 -1.16366,0.442422 -1.52037,0.917975 -1.38588,1.84761 0.30454,2.105071 4.69285,2.531345 6.6933,0.650178 z"
     id="path5266"
     inkscape:connector-curvature="0" /><path
     style="fill:#000080"
     d=""
     id="path5268"
     inkscape:connector-curvature="0" /><path
     style="fill:#000080"
     d="m 81.097315,21.965407 c 0,-0.737718 0.510403,-1.990177 1.134229,-2.783243 1.41268,-1.795932 1.417712,-2.113708 0.03347,-2.113708 -1.631746,0 -1.941783,-0.983554 -0.545578,-1.73078 0.936906,-0.501417 1.534389,-0.48574 2.567897,0.06738 0.740793,0.39646 1.346896,0.90243 1.346896,1.124378 0,0.70275 11.670803,1.231549 17.864092,0.809414 4.61593,-0.314622 5.9547,-0.589421 5.9547,-1.222272 0,-0.449018 0.23757,-0.669573 0.52793,-0.490121 0.29036,0.179453 0.68822,0.06691 0.88414,-0.250087 0.52533,-0.850012 2.31594,-0.700366 3.11311,0.260171 0.5724,0.689704 0.43419,0.955032 -0.78743,1.511638 -1.47879,0.673786 -1.47946,0.677177 -0.34126,1.73757 0.65234,0.607749 1.14042,1.789697 1.14042,2.76167 0,1.532345 -0.11315,1.638647 -1.15228,1.082519 -0.63376,-0.339178 -1.11393,-0.922359 -1.06704,-1.29596 0.2438,-1.942514 -0.0789,-2.160986 -3.02648,-2.049219 -1.63754,0.06209 -4.82756,-0.215873 -7.08893,-0.617699 -3.354392,-0.596047 -4.86876,-0.596047 -8.223153,0 -2.261367,0.401826 -5.451384,0.67979 -7.088926,0.617699 -2.87296,-0.108936 -3.327113,0.169593 -3.024609,1.854974 0.113416,0.63189 -1.083215,2.066983 -1.723523,2.066983 -0.27372,0 -0.497674,-0.603587 -0.497674,-1.341304 z"
     id="path5270"
     inkscape:connector-curvature="0" /><path
     style="fill:#000080"
     d=""
     id="path5272"
     inkscape:connector-curvature="0" /><path
     style="fill:#000080"
     d=""
     id="path5274"
     inkscape:connector-curvature="0" /><path
     style="fill:#000080"
     d="m 132.13758,10.881843 c 0,-0.575844 0.39893,-1.3780701 0.88651,-1.7827242 0.80393,-0.6672042 0.80393,-0.7819454 0,-1.2318483 -0.48758,-0.2728625 -0.88651,-0.738634 -0.88651,-1.0350478 0,-0.8210894 1.91444,-0.6427327 3.15252,0.2937009 1.58739,1.200646 16.49348,1.200646 18.08088,0 1.23807,-0.9364336 3.15251,-1.1147903 3.15251,-0.2937009 0,0.2964138 -0.4466,0.7896542 -0.99245,1.0960899 -0.94519,0.5306246 -0.94519,0.5753639 0,0.939526 0.55709,0.2146353 0.99245,0.9698878 0.99245,1.7216814 0,0.905185 -0.25346,1.24205 -0.78194,1.039253 -0.43007,-0.165033 -0.74907,-0.731226 -0.70889,-1.258208 0.0662,-0.8683996 -0.93626,-0.9581489 -10.70212,-0.9581489 -9.76587,0 -10.76833,0.089749 -10.70212,0.9581489 0.0402,0.526982 -0.27883,1.093175 -0.70889,1.258208 -0.49051,0.188223 -0.78195,-0.09017 -0.78195,-0.74693 z"
     id="path5276"
     inkscape:connector-curvature="0" /><path
     style="fill:#0000ff"
     d="m 159.84294,22.948592 c -0.51364,-0.582816 -1.02799,-1.570069 -1.14299,-2.193894 -0.17312,-0.939069 -0.69549,-1.149807 -3.0359,-1.224766 -1.55474,-0.0498 -4.65606,-0.402738 -6.89182,-0.784315 -3.18771,-0.544047 -4.96241,-0.546026 -8.22315,-0.0092 -2.28698,0.376532 -5.56175,0.729474 -7.27727,0.784315 -2.85699,0.09133 -3.12032,0.210968 -3.13329,1.423538 -0.008,0.728105 -0.4544,1.57019 -0.99245,1.871301 -0.84408,0.472368 -0.97828,0.27572 -0.97828,-1.433448 0,-1.335924 0.36813,-2.238774 1.13062,-2.772839 1.24302,-0.870647 0.9568,-1.540855 -0.65803,-1.540855 -1.2773,0 -1.33872,-0.74719 -0.14299,-1.73956 0.73667,-0.611379 1.10742,-0.612632 2.07716,-0.007 1.0361,0.647057 1.31429,0.573545 2.27519,-0.601234 1.0467,-1.279664 1.07092,-0.949574 0.10472,1.427097 -0.25182,0.619417 0.91934,0.864919 5.67114,1.188802 6.04526,0.412046 17.89789,-0.09557 17.89789,-0.766524 0,-0.777446 2.39664,-1.805767 3.43816,-1.475202 1.45381,0.461422 1.40387,1.761565 -0.0826,2.150285 l -1.18135,0.308929 1.22699,1.659582 c 0.75013,1.014614 1.15414,2.268777 1.03957,3.227115 -0.18045,1.50928 -0.22212,1.528153 -1.12132,0.507866 z"
     id="path5278"
     inkscape:connector-curvature="0" /><path
     style="fill:#ff0000"
     d="m 85.067114,11.09596 c 0,-0.45808 0.497349,-1.3302213 1.105219,-1.9380916 1.095549,-1.0955492 1.095477,-1.1083109 -0.0082,-1.4586154 -0.6124,-0.1943681 -0.967086,-0.5902243 -0.788192,-0.8796805 0.501982,-0.812224 2.307717,-0.622897 3.093893,0.3243872 1.03706,1.2495816 17.110591,1.2495816 18.147651,0 0.7782,-0.9376757 2.59025,-1.1393039 3.0824,-0.342982 0.17257,0.2792291 -0.0963,0.6650509 -0.59752,0.8573819 -0.6376,0.2446723 -0.74263,0.5605735 -0.3497,1.0518746 0.30886,0.3862001 0.7371,1.2747792 0.95162,1.9746208 0.29981,0.97803 0.19758,1.198579 -0.44182,0.953219 -0.45753,-0.17557 -0.95272,-0.781362 -1.10043,-1.346204 -0.24782,-0.9476578 -1.0729,-1.0212869 -10.681622,-0.9532193 -9.227594,0.065368 -10.433744,0.1812526 -10.594773,1.0179283 -0.234146,1.216575 -1.818491,1.860754 -1.818491,0.739381 z"
     id="path5286"
     inkscape:connector-curvature="0" /><path
     style="fill:#ff0000"
     d="m 124.41809,120.86164 c -3.62967,-1.46655 -4.7532,-6.52046 -2.13996,-9.62611 1.41728,-1.68435 1.4961,-2.13685 1.78323,-10.23779 0.25897,-7.306286 0.44591,-8.607211 1.35505,-9.429977 0.86052,-0.778763 1.31517,-0.835729 2.47012,-0.309499 l 1.41548,0.644936 0,9.08598 c 0,5.76699 0.21021,9.08599 0.57545,9.08599 0.85047,0 2.82267,3.48378 2.82512,4.99041 0.007,4.20291 -4.47205,7.33646 -8.28449,5.79606 z"
     id="path5288"
     inkscape:connector-curvature="0" /><path
     style="fill:#ff7f2a"
     d="m 98.315822,86.539933 c -0.179539,-0.467869 -0.175842,-1.243107 0.0082,-1.722751 0.274323,-0.714874 1.280841,-0.842662 5.583553,-0.708892 4.61493,0.143476 5.27356,0.291975 5.45297,1.229459 0.31098,1.624935 -0.89611,2.034693 -6.02182,2.044171 -3.657203,0.0068 -4.768721,-0.17956 -5.022918,-0.841987 z"
     id="path5290"
     inkscape:connector-curvature="0" /><path
     style="fill:#ff7f2a"
     d="m 98.763831,95.39534 c -0.420581,-0.266534 -0.672866,-0.96443 -0.560634,-1.55088 0.179412,-0.937484 0.838043,-1.085982 5.452963,-1.229459 4.32062,-0.134326 5.30859,-0.0077 5.58633,0.716115 0.70057,1.825654 -0.86049,2.566605 -5.38827,2.557515 -2.37913,-0.0048 -4.669808,-0.226757 -5.090389,-0.493291 z"
     id="path5292"
     inkscape:connector-curvature="0" /><path
     style="fill:#ff2a2a"
     d="m 98.763831,103.90205 c -0.420581,-0.26653 -0.672866,-0.96443 -0.560634,-1.55088 0.179412,-0.93748 0.838043,-1.08598 5.452963,-1.22946 4.32062,-0.13432 5.30859,-0.008 5.58633,0.71612 0.70057,1.82565 -0.86049,2.5666 -5.38827,2.55751 -2.37913,-0.005 -4.669808,-0.22675 -5.090389,-0.49329 z"
     id="path5294"
     inkscape:connector-curvature="0" /><path
     style="fill:#ffff00"
     d="m 99.953859,87.018451 c -0.788035,-0.169123 -1.276007,-0.692516 -1.276007,-1.368633 0,-1.000541 0.439373,-1.094784 5.104028,-1.094784 4.72595,0 5.10403,0.08402 5.10403,1.134228 0,0.813883 -0.37808,1.134228 -1.33864,1.134228 -0.73624,0 -2.45885,0.105482 -3.82802,0.234404 -1.36916,0.128923 -3.06359,0.111173 -3.765391,-0.03944 z"
     id="path5296"
     inkscape:connector-curvature="0" /><path
     style="fill:#aa0000"
     d="m 26.087248,109.23163 0,-5.38046 3.955641,-1.99203 c 2.175603,-1.09561 4.089613,-1.992026 4.253356,-1.992026 0.163743,0 0.297715,0.893206 0.297715,1.984896 0,1.0917 0.133971,1.9849 0.297714,1.9849 0.163743,0 2.071383,-0.8932 4.239198,-1.9849 2.167816,-1.09169 4.075456,-1.984896 4.239199,-1.984896 0.163743,0 0.297714,0.893206 0.297714,1.984896 0,1.0917 0.133972,1.9849 0.297715,1.9849 0.163743,0 2.071382,-0.8932 4.239198,-1.9849 2.167816,-1.09169 4.075455,-1.984896 4.239198,-1.984896 0.163743,0 0.297715,3.317616 0.297715,7.372486 l 0,7.37248 -13.327181,0 -13.327182,0 0,-5.38045 z m 6.215645,0.0201 c 0.881635,-1.0623 0.573693,-2.57277 -0.686282,-3.36624 -1.964992,-1.23746 -4.177696,1.551 -2.671182,3.36624 0.87597,1.05548 2.481494,1.05548 3.357464,0 z m 9.096436,-0.3108 c 1.225292,-2.28948 -1.481679,-4.52973 -3.289262,-2.72215 -1.424459,1.42446 -0.364138,3.85638 1.681389,3.85638 0.550469,0 1.274012,-0.5104 1.607873,-1.13423 z m 8.176772,0.79 c 1.205468,-0.46259 1.180013,-3.39564 -0.03351,-3.86131 -1.697267,-0.6513 -3.039234,0.20002 -3.039234,1.92804 0,1.93042 1.166911,2.6646 3.072745,1.93327 z"
     id="path5298"
     inkscape:connector-curvature="0" /><path
     style="fill:#550000"
     d="m 5.1040268,118.64223 0,-9.58058 3.8280202,-3.73651 3.82802,-3.73651 6.096477,-0.0101 6.096476,-0.0101 0,7.08892 0,7.08893 17.29698,0 17.29698,0 0,6.23825 0,6.23826 -27.221477,0 -27.2214762,0 0,-9.58059 z m 7.9395972,2.77522 0,-2.26846 -2.552013,0 -2.5520137,0 0,2.26846 0,2.26846 2.5520137,0 2.552013,0 0,-2.26846 z m 8.506712,0 c 0,-2.26846 0,-2.26846 -2.268457,-2.26846 -2.268456,0 -2.268456,0 -2.268456,2.26846 0,2.26846 0,2.26846 2.268456,2.26846 2.268457,0 2.268457,0 2.268457,-2.26846 z m 9.073825,0 0,-2.26846 -2.552013,0 -2.552014,0 0,2.26846 0,2.26846 2.552014,0 2.552013,0 0,-2.26846 z m 8.506711,0 c 0,-2.26846 0,-2.26846 -2.268456,-2.26846 -2.268456,0 -2.268456,0 -2.268456,2.26846 0,2.26846 0,2.26846 2.268456,2.26846 2.268456,0 2.268456,0 2.268456,-2.26846 z m 9.073826,0 0,-2.26846 -2.552013,0 -2.552014,0 0,2.26846 0,2.26846 2.552014,0 2.552013,0 0,-2.26846 z m 8.506711,0 c 0,-2.26846 0,-2.26846 -2.268456,-2.26846 -2.268456,0 -2.268456,0 -2.268456,2.26846 0,2.26846 0,2.26846 2.268456,2.26846 2.268456,0 2.268456,0 2.268456,-2.26846 z"
     id="path5300"
     inkscape:connector-curvature="0" /><path
     style="fill:#c8b7b7"
     d="m 16.190026,95.755537 c 0.14059,-2.57328 0.411037,-9.463717 0.600994,-15.312081 l 0.345375,-10.633389 2.715987,0 2.715987,0 0.325349,7.514262 c 0.178942,4.132844 0.466765,11.02328 0.639605,15.31208 l 0.314256,7.797821 -3.956586,0 -3.956586,0 0.255619,-4.678693 z"
     id="path5302"
     inkscape:connector-curvature="0" /><path
     style="fill:#ffff00"
     d=""
     id="path5306"
     inkscape:connector-curvature="0" /><path
     style="fill:#ffff00"
     d="m 9.9851715,18.439859 c -0.6997845,-1.82361 -0.3112914,-4.928814 0.8144375,-6.509754 1.190261,-1.671567 4.266742,-2.9076232 6.0659,-2.4371329 0.841161,0.2199685 0.564012,0.7317179 -1.627779,3.0056629 -1.452851,1.507307 -2.974941,3.662545 -3.382424,4.789418 -0.804303,2.224261 -1.333519,2.550202 -1.8701345,1.151806 z"
     id="path5308"
     inkscape:connector-curvature="0" /><path
     style="fill:#ffff00"
     d=""
     id="path5310"
     inkscape:connector-curvature="0" /><path
     style="fill:#ffff00"
     d=""
     id="path5312"
     inkscape:connector-curvature="0" /><path
     style="fill:#ffff00"
     d="m 14.177852,7.2285864 c 0,-0.1094118 0.280061,-1.0023137 0.622358,-1.9842264 0.716644,-2.0557669 1.288684,-1.92652 2.12787,0.480772 0.572054,1.6409929 0.533165,1.7023848 -1.078386,1.7023848 -0.919513,0 -1.671842,-0.089519 -1.671842,-0.1989304 z"
     id="path5314"
     inkscape:connector-curvature="0" /><path
     style="fill:#ffff00"
     d=""
     id="path5316"
     inkscape:connector-curvature="0" /><path
     style="fill:#ffff00"
     d=""
     id="path5318"
     inkscape:connector-curvature="0" /><path
     style="fill:#ffff00"
     d=""
     id="path5320"
     inkscape:connector-curvature="0" /><path
     style="fill:#ffff00"
     d="M 7.7383805,8.9870805 C 7.3140095,7.9733641 7.0343603,7.0613418 7.1169379,6.9603643 7.1995155,6.8593868 8.0793025,7.196786 9.0720202,7.7101402 c 1.7370838,0.898281 1.7677418,0.974476 0.8154776,2.0267163 -0.544205,0.6013395 -1.0767793,1.0933445 -1.1834985,1.0933445 -0.1067193,0 -0.5412477,-0.829404 -0.9656188,-1.8431205 z"
     id="path5322"
     inkscape:connector-curvature="0" /><path
     style="fill:#ffff00"
     d="M 7.4830414,15.650671 C 7.4945992,14.714933 7.6217,14.400788 7.765488,14.952572 c 0.143788,0.551783 0.1343318,1.317387 -0.021014,1.701342 -0.1553457,0.383955 -0.2729904,-0.06751 -0.2614328,-1.003243 z"
     id="path5324"
     inkscape:connector-curvature="0" /><path
     style="fill:#ffff00"
     d="M 4.6036195,16.279337 3.2525412,15.53041 5.1135818,14.881648 c 2.3905145,-0.833338 2.2589014,-0.878144 2.2589014,0.769023 0,1.57619 -0.7516419,1.746849 -2.7688637,0.628666 z"
     id="path5326"
     inkscape:connector-curvature="0" /><path
     style="fill:#ffff00"
     d="m 7.7678665,22.461043 c 0.8899123,-1.866166 1.0034041,-1.926271 1.9757242,-1.046333 0.5673673,0.51346 1.0315773,1.124248 1.0315773,1.357305 0,0.339207 -2.9971342,1.668925 -3.7616933,1.668925 -0.1043654,0 0.2351109,-0.890954 0.7543918,-1.979897 z"
     id="path5328"
     inkscape:connector-curvature="0" /><path
     style="fill:#ffff00"
     d="M 21.303777,9.7368565 C 20.351513,8.6846162 20.382171,8.6084212 22.119255,7.7101402 23.111973,7.196786 24.023643,6.8762156 24.145189,6.9977615 c 0.310674,0.3106746 -1.065029,3.8324395 -1.497062,3.8324395 -0.195187,0 -0.800145,-0.492005 -1.34435,-1.0933445 z"
     id="path5330"
     inkscape:connector-curvature="0" /><path
     style="fill:#80b3ff"
     d="M 8.6623553,39.700168 C 4.5190823,37.649277 2.5272605,32.978986 4.2486997,29.351322 4.936076,27.902784 6.0353351,26.913873 8.1040508,25.882989 9.6956497,25.089862 11.440965,24.44094 11.982529,24.44094 c 0.541564,0 1.102174,-0.446603 1.245799,-0.99245 0.143625,-0.545847 0.58636,-2.238835 0.983856,-3.762195 0.888218,-3.404001 3.96602,-6.804035 6.884888,-7.605706 5.145623,-1.413251 10.519306,2.105567 11.551407,7.564143 l 0.326275,1.725605 3.624075,-0.230764 c 3.423729,-0.218007 3.719671,-0.135167 5.353332,1.498493 0.951091,0.951092 1.875482,2.460385 2.054202,3.353985 0.281222,1.40611 0.584512,1.624728 2.253999,1.624728 2.455593,0 5.190115,2.499998 5.698466,5.209742 0.480232,2.559856 -0.908802,5.457243 -3.32147,6.928261 -1.7436,1.063082 -2.881927,1.128323 -19.714539,1.129899 -16.984873,0.0016 -17.982037,-0.05671 -20.2604637,-1.184513 z"
     id="path5332"
     inkscape:connector-curvature="0" /><path
     style="fill:#d7e3f4"
     d="M 16.446309,40.396977 C 9.0149046,39.986313 6.7891404,39.088808 5.0263863,35.79207 2.6774474,31.399037 4.250157,28.106824 9.9273696,25.532652 c 3.4457644,-1.562384 3.4820194,-1.603467 4.4327424,-5.023029 1.652105,-5.942296 6.238068,-9.342679 11.146228,-8.264666 2.307146,0.506734 6.062041,4.097639 6.539828,6.254211 0.711477,3.21136 0.621246,3.150721 4.528408,3.04323 4.169302,-0.114702 5.386369,0.581533 7.012748,4.011711 0.712205,1.502103 1.395902,2.05838 2.907871,2.365936 2.871818,0.584168 5.112188,3.313311 5.112188,6.227493 0,1.877981 -0.364822,2.681042 -1.928188,4.244408 -1.787363,1.787363 -2.1912,1.928326 -5.529363,1.930077 -1.980646,0.001 -7.556795,0.09942 -12.391443,0.218622 -4.834647,0.119202 -11.725084,0.05455 -15.31208,-0.143668 z"
     id="path5334"
     inkscape:connector-curvature="0" /></svg>