<?xml version="1.0" encoding="UTF-8" standalone="no"?>
<!-- Generator: Adobe Illustrator 21.0.2, SVG Export Plug-In . SVG Version: 6.00 Build 0)  -->

<svg
   xmlns:dc="http://purl.org/dc/elements/1.1/"
   xmlns:cc="http://creativecommons.org/ns#"
   xmlns:rdf="http://www.w3.org/1999/02/22-rdf-syntax-ns#"
   xmlns:svg="http://www.w3.org/2000/svg"
   xmlns="http://www.w3.org/2000/svg"
   xmlns:xlink="http://www.w3.org/1999/xlink"
   xmlns:sodipodi="http://sodipodi.sourceforge.net/DTD/sodipodi-0.dtd"
   xmlns:inkscape="http://www.inkscape.org/namespaces/inkscape"
   version="1.1"
   id="Capa_1"
   x="0px"
   y="0px"
   viewBox="0 0 169 131"
   style="enable-background:new 0 0 169 131;"
   xml:space="preserve"
   inkscape:version="0.91 r13725"
   sodipodi:docname="smartRoutes2.svg"><metadata
     id="metadata93"><rdf:RDF><cc:Work
         rdf:about=""><dc:format>image/svg+xml</dc:format><dc:type
           rdf:resource="http://purl.org/dc/dcmitype/StillImage" /><dc:title></dc:title></cc:Work></rdf:RDF></metadata><defs
     id="defs91"><linearGradient
       inkscape:collect="always"
       id="linearGradient5794"><stop
         style="stop-color:#ffff00;stop-opacity:1;"
         offset="0"
         id="stop5796" /><stop
         style="stop-color:#ffff00;stop-opacity:0;"
         offset="1"
         id="stop5798" /></linearGradient><linearGradient
       inkscape:collect="always"
       id="linearGradient5763"><stop
         style="stop-color:#25e4ff;stop-opacity:1;"
         offset="0"
         id="stop5765" /><stop
         style="stop-color:#25e4ff;stop-opacity:0;"
         offset="1"
         id="stop5767" /></linearGradient><linearGradient
       inkscape:collect="always"
       xlink:href="#linearGradient5763"
       id="linearGradient5773"
       x1="3.3"
       y1="26.200001"
       x2="52.400002"
       y2="26.200001"
       gradientUnits="userSpaceOnUse" /><linearGradient
       inkscape:collect="always"
       xlink:href="#linearGradient5794"
       id="linearGradient5802"
       x1="9.1999998"
       y1="14.7"
       x2="19"
       y2="14.7"
       gradientUnits="userSpaceOnUse" /></defs><sodipodi:namedview
     pagecolor="#ffffff"
     bordercolor="#666666"
     borderopacity="1"
     objecttolerance="10"
     gridtolerance="10"
     guidetolerance="10"
     inkscape:pageopacity="0"
     inkscape:pageshadow="2"
     inkscape:window-width="1215"
     inkscape:window-height="918"
     id="namedview89"
     showgrid="false"
     inkscape:zoom="4.987404"
     inkscape:cx="80.479619"
     inkscape:cy="65.5"
     inkscape:window-x="65"
     inkscape:window-y="24"
     inkscape:window-maximized="1"
     inkscape:current-layer="g5" /><style
     type="text/css"
     id="style3">
	.st0{fill-rule:evenodd;clip-rule:evenodd;}
	.st1{fill-rule:evenodd;clip-rule:evenodd;fill:#FFFFFF;}
	.st2{fill-rule:evenodd;clip-rule:evenodd;fill:#020202;}
	.st3{fill:#FFFFFF;}
	.st4{fill:#020202;}
</style><g
     id="g5"><path
       class="st0"
       d="M17.1,7.8h-2.7c-0.2,0-0.4-0.1-0.5-0.2c-0.1-0.2-0.1-0.4-0.1-0.6l1.5-3.8c0.1-0.4,0.4-0.4,0.4-0.4   c0.1,0,0.4,0,0.5,0.4l1.4,3.8c0.1,0.2,0.1,0.4,0,0.6C17.4,7.6,17.2,7.8,17.1,7.8L17.1,7.8z"
       id="path7"
       style="fill:#ffff00" /><path
       class="st0"
       d="M23.2,10.8c-0.1,0.2-0.4,0.4-0.6,0.4c-0.1,0-0.2-0.1-0.4-0.2l-1.9-1.9c-0.1-0.1-0.2-0.4-0.2-0.5   c0.1-0.2,0.2-0.4,0.4-0.5l3.8-1.7c0.1,0,0.1,0,0.2,0c0.1,0,0.2,0,0.4,0.1c0,0.1,0.1,0.2,0,0.5L23.2,10.8z"
       id="path9"
       style="fill:#ffff00" /><path
       class="st0"
       d="M8.3,20.6c0.1-0.2,0.2-0.4,0.5-0.4c0.2,0,0.4,0,0.5,0.1l1.9,1.9c0.1,0.1,0.2,0.4,0.1,0.6   c0,0.1-0.1,0.2-0.4,0.4l-3.6,1.7C7.1,24.9,7,25,7,25c-0.1,0-0.2-0.1-0.4-0.2c0-0.1-0.1-0.2,0-0.5L8.3,20.6z"
       id="path11"
       style="fill:#ffff00" /><path
       class="st0"
       d="M9.2,11c-0.1,0.1-0.2,0.2-0.5,0.2c-0.2,0-0.4-0.1-0.5-0.4L6.6,7c-0.1-0.2,0-0.4,0-0.5C6.8,6.5,6.9,6.5,7,6.5   c0,0,0.1,0,0.2,0l3.6,1.7c0.2,0.1,0.4,0.2,0.4,0.5c0.1,0.1,0,0.4-0.1,0.5L9.2,11z"
       id="path13"
       style="fill:#ffff00;fill-opacity:1" /><path
       class="st0"
       d="M3.4,15.2l3.8-1.4c0,0,0.1-0.1,0.2-0.1c0.2,0,0.5,0.4,0.5,0.6V17c0,0.4-0.2,0.6-0.5,0.6c-0.1,0-0.2,0-0.2,0   l-3.8-1.5C3,15.9,3,15.8,3,15.7C3,15.6,3,15.4,3.4,15.2L3.4,15.2z"
       id="path15"
       style="fill:#ffff00" /><path
       class="st0"
       d="M13,24.1c0.2-6.2,4-12.7,10.2-12.7c5.9,0,9.4,4.2,10.1,9.9c0.9-0.7,3.4-0.7,4.6-0.7c3.5,0,6.5,3,6.5,6.5   c-0.4,1.3-0.2,0.5,1.1,0c3.9,0,6.9,3.1,6.9,7c0,3.4-2.6,6.4-5.9,6.9c-0.2,0-0.6,0-0.8,0H13.1c-0.1,0-0.2,0-0.2,0   c-0.1,0-0.2,0-0.4,0c-5,0-9.2-4-9.2-9.1C3.4,26.9,8.3,24.5,13,24.1L13,24.1z"
       id="path17"
       style="fill:url(#linearGradient5773);fill-opacity:1;opacity:1" /><path
       class="st0"
       d="M15.7,9.1c1.2,0,2.4,0.4,3.3,0.8c-4.1,1.8-6.8,6.1-7.9,10.4c-1.2-1.2-1.9-2.9-1.9-4.6   C9.2,12,12.2,9.1,15.7,9.1L15.7,9.1z"
       id="path19"
       style="fill:url(#linearGradient5802);fill-opacity:1" /></g><g
     id="g21"><path
       d="M24.3,60.1c-0.1-0.2-0.1-0.5-0.1-0.7c0-1.2,1-2.2,2.2-2.2c1,0,1.8,0.6,2,1.5c0.5,0,0.9,0.2,1.3,0.4c0.1-1.2,1.1-2,2.3-2   c1.2,0,2.2,0.9,2.3,2.1c0.5-0.6,1.3-0.9,2.1-0.9c1.6,0,2.8,1.3,2.8,2.9c0,0.2,0,0.4-0.1,0.6c0,0,0.1,0,0.1,0c1.2,0,2.2,1,2.2,2.3   c0,1.2-1,2.3-2.2,2.3c-0.4,0-0.8-0.1-1.1-0.3c-0.4,0.6-1,1-1.8,1c-1.1,0-2-0.8-2.1-1.9c-0.5,0.5-1.1,0.8-1.9,0.8   c-0.5,0-0.9-0.1-1.3-0.3c-0.4,0.7-1.1,1.3-2,1.3c-1.2,0-2.3-1-2.3-2.3c0,0,0,0,0-0.1c-0.1-0.1-0.2-0.1-0.3-0.2   c-0.5,0.6-1.1,0.9-1.9,0.9c-1.4,0-2.5-1.1-2.5-2.5C22.1,61.3,23.1,60.2,24.3,60.1z"
       id="path23"
       style="fill:#959595;fill-opacity:1" /><polygon
       points="15.8,100.8 24,100.8 23,69.7 16.8,69.7  "
       id="polygon25"
       style="fill:#daa440;fill-opacity:1" /><path
       d="M12.8,101.3H25v14.4h35v12.9H25H4.8v-19.8L12.8,101.3z M52.2,123.5h4.3v-4.2h-4.3V123.5z M43.4,123.5h4.3v-4.2h-4.3V123.5z    M34.7,123.5H39v-4.2h-4.3V123.5z M25.9,123.5h4.3v-4.2h-4.3V123.5z M17.2,123.5h4.3v-4.2h-4.3V123.5z M8.4,123.5h4.3v-4.2H8.4   V123.5z"
       id="path27"
       style="fill-opacity:1;fill:#7ea4d3" /><path
       d="M44,115.1h9V99.2l-9,4.5v-4.5l-9,4.5v-4.5l-9,4.5v11.4h9H44z M48.5,105.8c1.1,0,2,0.9,2,2c0,1.1-0.9,2-2,2   c-1.1,0-2-0.9-2-2C46.5,106.7,47.4,105.8,48.5,105.8z M39.5,105.8c1.1,0,2,0.9,2,2c0,1.1-0.9,2-2,2c-1.1,0-2-0.9-2-2   C37.6,106.7,38.4,105.8,39.5,105.8z M30.6,109.8c-1.1,0-2-0.9-2-2c0-1.1,0.9-2,2-2c1.1,0,2,0.9,2,2   C32.5,108.9,31.6,109.8,30.6,109.8z"
       id="path29"
       style="fill:#7ea4d3;fill-opacity:1" /></g><g
     id="g31"><path
       class="st0"
       d="M136.7,84.1c0-5.6-4.5-10.1-10-10.1c-5.6,0-10.1,4.5-10.1,10.1v22.6c-2.1,2.4-3.3,5.5-3.3,8.7   c0,7.3,6,13.3,13.3,13.3c7.4,0,13.4-6,13.4-13.3c0-3.3-1.1-6.3-3.3-8.7V84.1z"
       id="path33" /><path
       class="st1"
       d="M126.6,125.1c-5.3,0-9.7-4.4-9.7-9.7c0-2.6,0.9-5,2.7-6.8c0.3-0.3,0.5-0.8,0.5-1.3V84.1c0-3.6,2.9-6.5,6.5-6.5   c3.6,0,6.5,2.9,6.5,6.5v23.3c0,0.5,0.2,0.9,0.5,1.3c1.7,1.8,2.7,4.2,2.7,6.8C136.4,120.8,132,125.1,126.6,125.1L126.6,125.1z"
       id="path35" /><path
       class="st0"
       d="M129.7,109.7l0.1-16c0-1.6-1.4-3-3-3c-1.6,0-3,1.4-3,3l-0.2,16c-1.9,1-3.3,3.2-3.3,5.6c0,3.5,2.8,6.3,6.3,6.3   c3.5,0,6.3-2.8,6.3-6.3C133,112.9,131.6,110.7,129.7,109.7L129.7,109.7z"
       id="path37"
       style="fill:#ff0000" /><path
       class="st2"
       d="M99.5,87.5L99.5,87.5h8.5c1,0,1.8-0.9,1.8-1.9c0-1-0.8-1.8-1.8-1.8h-8.5c-1,0-1.8,0.8-1.8,1.8   C97.7,86.7,98.5,87.5,99.5,87.5L99.5,87.5z"
       id="path39" /><path
       class="st2"
       d="M108,92.3L108,92.3h-8.5c-1,0-1.8,0.8-1.8,1.8c0,1,0.8,1.8,1.8,1.8h8.5c1,0,1.8-0.8,1.8-1.8   C109.8,93.1,109,92.3,108,92.3L108,92.3z"
       id="path41" /><path
       class="st2"
       d="M108,100.8L108,100.8h-8.5c-1,0-1.8,0.9-1.8,1.8c0,1,0.8,1.9,1.8,1.9h8.5c1,0,1.8-0.9,1.8-1.9   C109.8,101.7,109,100.8,108,100.8L108,100.8z"
       id="path43" /></g><g
     id="g45"><g
       id="g47"><g
         id="g49"
         style="fill:#ef1a27;fill-opacity:1"><path
           d="M157.1,7.1c0-0.6-1-1.3-1.9-1.3c-0.8,0-1.3,0.5-1.4,1l-1.8-3c-0.6-1-2.1-1.4-7.6-1.4c-5.5,0-7,0.4-7.6,1.4l-1.8,3     c-0.1-0.5-0.6-1-1.4-1c-0.9,0-1.9,0.7-1.9,1.3c0,0.6,1,1,1.9,1c0.1,0,0.2,0,0.2,0c-0.5,0.5-1.1,0.9-1.1,0.9     c-0.4,0.4-0.7,1.1-0.7,1.6v4.1c0,0.4,0.2,0.7,0.6,1v2.1c0,0.4,0.3,0.7,0.7,0.7h3c0.4,0,0.7-0.3,0.7-0.7v-0.9     c2.1,0.3,4.6,0.4,7.5,0.4c2.9,0,5.5-0.1,7.5-0.4v0.9c0,0.4,0.3,0.7,0.7,0.7h3c0.4,0,0.7-0.3,0.7-0.7v-2.1c0.4-0.3,0.6-0.6,0.6-1     v-4.1c0-0.5-0.3-1.2-0.7-1.6c0,0-0.5-0.4-1.1-0.9c0.1,0,0.2,0,0.2,0C156.1,8,157.1,7.7,157.1,7.1z M137.3,4.2c0.4-0.6,1.7-1,7-1     c5.3,0,6.6,0.4,7,1l1.8,3.2c0,0-2.3,0.5-8.8,0.5c-6.5,0-8.8-0.5-8.8-0.5L137.3,4.2z M137.9,10.6c-0.1,0.9-1.4,1.2-2.6,1.1     c-1.2-0.1-1.7-0.6-1.6-1.4c0.1-0.6,0.7-0.9,1.8-0.8C137.1,9.5,137.9,10,137.9,10.6z M149,14.7c-0.8,0.8-8.6,0.8-9.4,0     c-0.3-0.3-0.3-1,0-1.3c0.8-0.8,8.6-0.8,9.4,0C149.2,13.7,149.2,14.4,149,14.7z M153.3,11.6c-1.2,0.1-2.5-0.2-2.6-1.1     c-0.1-0.6,0.7-1.1,2.4-1.2c1.2-0.1,1.8,0.2,1.8,0.8C155,11.1,154.5,11.5,153.3,11.6z"
           id="path51"
           style="fill:#ef1a27;fill-opacity:1" /></g><ellipse
         class="st3"
         cx="144.4"
         cy="30.5"
         rx="24.6"
         ry="21.1"
         id="ellipse53" /><g
         id="g55"
         style="fill:#6b738e;fill-opacity:1"><path
           d="M161.6,16.3c0-0.8-1.3-1.7-2.6-1.7c-1.1,0-1.7,0.6-1.9,1.3l-2.5-4c-0.8-1.3-2.8-1.8-10.2-1.8s-9.4,0.6-10.2,1.8l-2.5,4     c-0.2-0.7-0.9-1.3-1.9-1.3c-1.3,0-2.6,0.9-2.6,1.7c0,0.8,1.3,1.3,2.6,1.3c0.1,0,0.2,0,0.3,0c-0.7,0.6-1.5,1.2-1.5,1.2     c-0.5,0.5-0.9,1.4-0.9,2.1v5.4c0,0.5,0.3,0.9,0.8,1.3v2.9c0,0.5,0.4,0.9,0.9,0.9h4c0.5,0,0.9-0.4,0.9-0.9v-1.2     c2.7,0.4,6.2,0.6,10.1,0.6c3.9,0,7.3-0.2,10.1-0.6v1.2c0,0.5,0.4,0.9,0.9,0.9h4c0.5,0,0.9-0.4,0.9-0.9v-2.9     c0.5-0.4,0.8-0.8,0.8-1.3V21c0-0.7-0.4-1.7-0.9-2.1c0,0-0.7-0.6-1.5-1.2c0.1,0,0.2,0,0.3,0C160.3,17.6,161.6,17.2,161.6,16.3z      M135.1,12.4c0.5-0.8,2.3-1.4,9.4-1.4c7.1,0,8.9,0.6,9.4,1.4l2.4,4.2c0,0-3,0.6-11.7,0.6c-8.7,0-11.7-0.6-11.7-0.6L135.1,12.4z      M135.9,21c-0.1,1.1-1.9,1.6-3.5,1.4c-1.6-0.1-2.3-0.8-2.2-1.9c0.1-0.8,0.9-1.3,2.4-1.1C134.9,19.6,136,20.2,135.9,21z      M150.8,26.5c-1.1,1.1-11.5,1.1-12.6,0c-0.3-0.3-0.3-1.3,0-1.7c1.1-1.1,11.5-1.1,12.6,0C151.1,25.2,151.1,26.1,150.8,26.5z      M156.5,22.4c-1.6,0.1-3.4-0.3-3.5-1.4c-0.1-0.8,1-1.4,3.2-1.6c1.6-0.1,2.4,0.3,2.4,1.1C158.8,21.6,158.1,22.3,156.5,22.4z"
           id="path57"
           style="fill:#6b738e;fill-opacity:1" /></g><ellipse
         class="st3"
         cx="144.4"
         cy="39.7"
         rx="24.6"
         ry="21.1"
         id="ellipse59" /><path
         d="M165.3,28.4c0-1-1.6-2.1-3.1-2.1c-1.3,0-2.1,0.7-2.3,1.6l-3-4.8c-1-1.5-3.4-2.2-12.4-2.2c-9,0-11.4,0.7-12.4,2.2l-3,4.8    c-0.2-0.8-1-1.6-2.3-1.6c-1.5,0-3.1,1.1-3.1,2.1c0,1,1.6,1.6,3.1,1.6c0.1,0,0.3,0,0.4,0c-0.9,0.8-1.8,1.5-1.8,1.5    c-0.6,0.6-1.1,1.7-1.1,2.6v6.6c0,0.6,0.3,1.1,1,1.6v3.5c0,0.6,0.5,1.1,1.1,1.1h4.8c0.6,0,1.1-0.5,1.1-1.1v-1.4    c3.3,0.5,7.5,0.7,12.2,0.7c4.7,0,8.9-0.2,12.2-0.7v1.4c0,0.6,0.5,1.1,1.1,1.1h4.8c0.6,0,1.1-0.5,1.1-1.1v-3.5c0.6-0.5,1-1,1-1.6    v-6.6c0-0.8-0.5-2-1.1-2.6c0,0-0.9-0.7-1.8-1.5c0.1,0,0.2,0,0.4,0C163.7,30,165.3,29.4,165.3,28.4z M133.1,23.7    c0.6-1,2.8-1.7,11.4-1.7c8.6,0,10.8,0.7,11.4,1.7l2.9,5.1c0,0-3.7,0.8-14.3,0.8c-10.6,0-14.3-0.8-14.3-0.8L133.1,23.7z M134,34.1    c-0.1,1.4-2.3,1.9-4.2,1.7c-1.9-0.2-2.8-0.9-2.6-2.3c0.1-1,1.1-1.5,3-1.4C132.8,32.4,134.1,33.1,134,34.1z M152.1,40.8    c-1.4,1.4-13.9,1.4-15.3,0c-0.4-0.4-0.4-1.6,0-2c1.4-1.4,13.9-1.4,15.3,0C152.5,39.2,152.5,40.4,152.1,40.8z M159.1,35.8    c-1.9,0.2-4.1-0.3-4.2-1.7c-0.1-1,1.2-1.7,3.9-2c1.9-0.2,2.9,0.4,3,1.4C161.9,34.9,161,35.7,159.1,35.8z"
         id="path61"
         style="fill:#1a4ed3;fill-opacity:1" /></g><g
       id="g63"><g
         id="g65"
         style="fill:#1ad363;fill-opacity:1"><path
           d="M110.3,7.1c0-0.6-1-1.3-1.9-1.3c-0.8,0-1.3,0.5-1.4,1l-1.8-3c-0.6-1-2.1-1.4-7.6-1.4c-5.5,0-7,0.4-7.6,1.4l-1.8,3     c-0.1-0.5-0.6-1-1.4-1c-0.9,0-1.9,0.7-1.9,1.3c0,0.6,1,1,1.9,1c0.1,0,0.2,0,0.2,0C86.2,8.5,85.7,9,85.7,9C85.3,9.3,85,10,85,10.6     v4.1c0,0.4,0.2,0.7,0.6,1v2.1c0,0.4,0.3,0.7,0.7,0.7h3c0.4,0,0.7-0.3,0.7-0.7v-0.9c2.1,0.3,4.6,0.4,7.5,0.4     c2.9,0,5.5-0.1,7.5-0.4v0.9c0,0.4,0.3,0.7,0.7,0.7h3c0.4,0,0.7-0.3,0.7-0.7v-2.1c0.4-0.3,0.6-0.6,0.6-1v-4.1     c0-0.5-0.3-1.2-0.7-1.6c0,0-0.5-0.4-1.1-0.9c0.1,0,0.2,0,0.2,0C109.3,8,110.3,7.7,110.3,7.1z M90.4,4.2c0.4-0.6,1.7-1,7-1     c5.3,0,6.6,0.4,7,1l1.8,3.2c0,0-2.3,0.5-8.8,0.5c-6.5,0-8.8-0.5-8.8-0.5L90.4,4.2z M91,10.6c-0.1,0.9-1.4,1.2-2.6,1.1     c-1.2-0.1-1.7-0.6-1.6-1.4c0.1-0.6,0.7-0.9,1.8-0.8C90.3,9.5,91.1,10,91,10.6z M102.1,14.7c-0.8,0.8-8.6,0.8-9.4,0     c-0.3-0.3-0.3-1,0-1.3c0.8-0.8,8.6-0.8,9.4,0C102.4,13.7,102.4,14.4,102.1,14.7z M106.4,11.6c-1.2,0.1-2.5-0.2-2.6-1.1     c-0.1-0.6,0.7-1.1,2.4-1.2c1.2-0.1,1.8,0.2,1.8,0.8C108.1,11.1,107.6,11.5,106.4,11.6z"
           id="path67"
           style="fill:#1ad363;fill-opacity:1" /></g><ellipse
         class="st3"
         cx="97.6"
         cy="30.5"
         rx="24.6"
         ry="21.1"
         id="ellipse69" /><g
         id="g71"
         style="fill:#d31aa7;fill-opacity:1"><path
           d="M114.8,16.3c0-0.8-1.3-1.7-2.6-1.7c-1.1,0-1.7,0.6-1.9,1.3l-2.5-4c-0.8-1.3-2.8-1.8-10.2-1.8c-7.4,0-9.4,0.6-10.2,1.8     l-2.5,4c-0.2-0.7-0.9-1.3-1.9-1.3c-1.3,0-2.6,0.9-2.6,1.7c0,0.8,1.3,1.3,2.6,1.3c0.1,0,0.2,0,0.3,0c-0.7,0.6-1.5,1.2-1.5,1.2     C81.4,19.3,81,20.3,81,21v5.4c0,0.5,0.3,0.9,0.8,1.3v2.9c0,0.5,0.4,0.9,0.9,0.9h4c0.5,0,0.9-0.4,0.9-0.9v-1.2     c2.7,0.4,6.2,0.6,10.1,0.6c3.9,0,7.3-0.2,10.1-0.6v1.2c0,0.5,0.4,0.9,0.9,0.9h4c0.5,0,0.9-0.4,0.9-0.9v-2.9     c0.5-0.4,0.8-0.8,0.8-1.3V21c0-0.7-0.4-1.7-0.9-2.1c0,0-0.7-0.6-1.5-1.2c0.1,0,0.2,0,0.3,0C113.4,17.6,114.8,17.2,114.8,16.3z      M88.2,12.4c0.5-0.8,2.3-1.4,9.4-1.4c7.1,0,8.9,0.6,9.4,1.4l2.4,4.2c0,0-3,0.6-11.7,0.6c-8.7,0-11.7-0.6-11.7-0.6L88.2,12.4z      M89,21c-0.1,1.1-1.9,1.6-3.5,1.4c-1.6-0.1-2.3-0.8-2.2-1.9c0.1-0.8,0.9-1.3,2.4-1.1C88.1,19.6,89.1,20.2,89,21z M103.9,26.5     c-1.1,1.1-11.5,1.1-12.6,0c-0.3-0.3-0.3-1.3,0-1.7c1.1-1.1,11.5-1.1,12.6,0C104.3,25.2,104.3,26.1,103.9,26.5z M109.7,22.4     c-1.6,0.1-3.4-0.3-3.5-1.4c-0.1-0.8,1-1.4,3.2-1.6c1.6-0.1,2.4,0.3,2.4,1.1C111.9,21.6,111.2,22.3,109.7,22.4z"
           id="path73"
           style="fill:#d31aa7;fill-opacity:1" /></g><ellipse
         class="st3"
         cx="97.6"
         cy="39.7"
         rx="24.6"
         ry="21.1"
         id="ellipse75" /><path
         d="M118.5,28.4c0-1-1.6-2.1-3.1-2.1c-1.3,0-2.1,0.7-2.3,1.6l-3-4.8c-1-1.5-3.4-2.2-12.4-2.2c-9,0-11.4,0.7-12.4,2.2l-3,4.8    c-0.2-0.8-1-1.6-2.3-1.6c-1.5,0-3.1,1.1-3.1,2.1c0,1,1.6,1.6,3.1,1.6c0.1,0,0.3,0,0.4,0c-0.9,0.8-1.8,1.5-1.8,1.5    c-0.6,0.6-1.1,1.7-1.1,2.6v6.6c0,0.6,0.3,1.1,1,1.6v3.5c0,0.6,0.5,1.1,1.1,1.1h4.8c0.6,0,1.1-0.5,1.1-1.1v-1.4    c3.3,0.5,7.5,0.7,12.2,0.7c4.7,0,8.9-0.2,12.2-0.7v1.4c0,0.6,0.5,1.1,1.1,1.1h4.8c0.6,0,1.1-0.5,1.1-1.1v-3.5c0.6-0.5,1-1,1-1.6    v-6.6c0-0.8-0.5-2-1.1-2.6c0,0-0.9-0.7-1.8-1.5c0.1,0,0.2,0,0.4,0C116.8,30,118.5,29.4,118.5,28.4z M86.2,23.7    c0.6-1,2.8-1.7,11.4-1.7c8.6,0,10.8,0.7,11.4,1.7l2.9,5.1c0,0-3.7,0.8-14.3,0.8c-10.6,0-14.3-0.8-14.3-0.8L86.2,23.7z M87.2,34.1    c-0.1,1.4-2.3,1.9-4.2,1.7c-1.9-0.2-2.8-0.9-2.6-2.3c0.1-1,1.1-1.5,3-1.4C86,32.4,87.3,33.1,87.2,34.1z M105.3,40.8    c-1.4,1.4-13.9,1.4-15.3,0c-0.4-0.4-0.4-1.6,0-2c1.4-1.4,13.9-1.4,15.3,0C105.7,39.2,105.7,40.4,105.3,40.8z M112.3,35.8    c-1.9,0.2-4.1-0.3-4.2-1.7c-0.1-1,1.2-1.7,3.9-2c1.9-0.2,2.9,0.4,3,1.4C115,34.9,114.2,35.7,112.3,35.8z"
         id="path77"
         style="fill:#d1d37e;fill-opacity:1" /></g><path
       class="st4"
       d="M119.8,47l1.1-44.5c0.1-0.1,0.6,0,0.6,0l1.4,44.5H119.8z"
       id="path79" /><rect
       x="119.1"
       y="34.7"
       class="st3"
       width="4.6"
       height="2.3"
       id="rect81" /><rect
       x="119.1"
       y="23.9"
       class="st3"
       width="4.6"
       height="2.3"
       id="rect83" /><rect
       x="119.1"
       y="14.7"
       class="st3"
       width="4.6"
       height="2.3"
       id="rect85" /><rect
       x="119.1"
       y="6.3"
       class="st3"
       width="4.6"
       height="2.3"
       id="rect87" /></g></svg>