<?xml version="1.0" encoding="UTF-8" standalone="no"?>
<!-- Generator: Adobe Illustrator 21.0.2, SVG Export Plug-In . SVG Version: 6.00 Build 0)  -->

<svg
   xmlns:dc="http://purl.org/dc/elements/1.1/"
   xmlns:cc="http://creativecommons.org/ns#"
   xmlns:rdf="http://www.w3.org/1999/02/22-rdf-syntax-ns#"
   xmlns:svg="http://www.w3.org/2000/svg"
   xmlns="http://www.w3.org/2000/svg"
   xmlns:xlink="http://www.w3.org/1999/xlink"
   xmlns:sodipodi="http://sodipodi.sourceforge.net/DTD/sodipodi-0.dtd"
   xmlns:inkscape="http://www.inkscape.org/namespaces/inkscape"
   version="1.1"
   id="Capa_1"
   x="0px"
   y="0px"
   viewBox="0 0 66 60"
   style="enable-background:new 0 0 66 60;"
   xml:space="preserve"
   inkscape:version="0.91 r13725"
   sodipodi:docname="smartPoints2.svg"><metadata
     id="metadata17"><rdf:RDF><cc:Work
         rdf:about=""><dc:format>image/svg+xml</dc:format><dc:type
           rdf:resource="http://purl.org/dc/dcmitype/StillImage" /><dc:title></dc:title></cc:Work></rdf:RDF></metadata><defs
     id="defs15"><linearGradient
       inkscape:collect="always"
       id="linearGradient5626"><stop
         style="stop-color:#6b8e4d;stop-opacity:1;"
         offset="0"
         id="stop5628" /><stop
         style="stop-color:#6b8e4d;stop-opacity:0;"
         offset="1"
         id="stop5630" /></linearGradient><linearGradient
       inkscape:collect="always"
       xlink:href="#linearGradient5626"
       id="linearGradient5632"
       x1="1.3870621"
       y1="42.05"
       x2="64.739726"
       y2="42.05"
       gradientUnits="userSpaceOnUse" /></defs><sodipodi:namedview
     pagecolor="#ffffff"
     bordercolor="#666666"
     borderopacity="1"
     objecttolerance="10"
     gridtolerance="10"
     guidetolerance="10"
     inkscape:pageopacity="0"
     inkscape:pageshadow="2"
     inkscape:window-width="1215"
     inkscape:window-height="918"
     id="namedview13"
     showgrid="false"
     inkscape:zoom="2.7812867"
     inkscape:cx="28.850289"
     inkscape:cy="30"
     inkscape:window-x="65"
     inkscape:window-y="24"
     inkscape:window-maximized="1"
     inkscape:current-layer="g5" /><style
     type="text/css"
     id="style3">
	.st0{fill-rule:evenodd;clip-rule:evenodd;fill:#020202;}
	.st1{fill-rule:evenodd;clip-rule:evenodd;}
	.st2{fill-rule:evenodd;clip-rule:evenodd;fill:#FFFFFF;}
</style><g
     id="g5"><path
       class="st0"
       d="M13.3,25.5h10.9L33,40.9l8.9-15.4h10.9c0.5,0,0.7,0.4,0.8,0.8l11.1,31.4c0.2,0.4-0.4,0.9-0.8,0.9H2.2   c-0.4,0-0.9-0.4-0.8-0.9l11.1-31.4C12.7,25.9,12.8,25.5,13.3,25.5L13.3,25.5z"
       id="path7"
       style="fill:url(#linearGradient5632);fill-opacity:1" /><path
       class="st1"
       d="M33,38.1L22.3,19.7c-1.1-1.8-1.6-3.9-1.6-6.1c0-6.8,5.5-12.2,12.3-12.2c6.8,0,12.2,5.4,12.2,12.2   c0,2.3-0.7,4.5-1.8,6.4L33,38.1z"
       id="path9"
       style="fill:#ff2a2a" /><path
       class="st2"
       d="M33.3,6.9c3.8,0.1,6.9,3.2,6.9,7.1c-0.1,3.8-3.3,6.9-7.1,6.9c-3.8-0.1-6.9-3.3-6.9-7.1   C26.2,9.8,29.4,6.8,33.3,6.9L33.3,6.9z"
       id="path11" /></g></svg>