<?xml version="1.0" encoding="UTF-8" standalone="no"?>
<!-- Generator: Adobe Illustrator 21.0.2, SVG Export Plug-In . SVG Version: 6.00 Build 0)  -->

<svg
   xmlns:dc="http://purl.org/dc/elements/1.1/"
   xmlns:cc="http://creativecommons.org/ns#"
   xmlns:rdf="http://www.w3.org/1999/02/22-rdf-syntax-ns#"
   xmlns:svg="http://www.w3.org/2000/svg"
   xmlns="http://www.w3.org/2000/svg"
   xmlns:sodipodi="http://sodipodi.sourceforge.net/DTD/sodipodi-0.dtd"
   xmlns:inkscape="http://www.inkscape.org/namespaces/inkscape"
   version="1.1"
   id="Capa_1"
   x="0px"
   y="0px"
   viewBox="0 0 66 60"
   style="enable-background:new 0 0 66 60;"
   xml:space="preserve"
   inkscape:version="0.91 r13725"
   sodipodi:docname="smartPoints2.svg"><metadata
     id="metadata3552"><rdf:RDF><cc:Work
         rdf:about=""><dc:format>image/svg+xml</dc:format><dc:type
           rdf:resource="http://purl.org/dc/dcmitype/StillImage" /><dc:title></dc:title></cc:Work></rdf:RDF></metadata><defs
     id="defs3550" /><sodipodi:namedview
     pagecolor="#ffffff"
     bordercolor="#666666"
     borderopacity="1"
     objecttolerance="10"
     gridtolerance="10"
     guidetolerance="10"
     inkscape:pageopacity="0"
     inkscape:pageshadow="2"
     inkscape:window-width="1025"
     inkscape:window-height="821"
     id="namedview3548"
     showgrid="false"
     inkscape:zoom="3.9333333"
     inkscape:cx="33"
     inkscape:cy="30"
     inkscape:window-x="157"
     inkscape:window-y="78"
     inkscape:window-maximized="0"
     inkscape:current-layer="Capa_1" /><style
     type="text/css"
     id="style3538">
	.st0{fill-rule:evenodd;clip-rule:evenodd;fill:#020202;}
	.st1{fill-rule:evenodd;clip-rule:evenodd;}
	.st2{fill-rule:evenodd;clip-rule:evenodd;fill:#FFFFFF;}
</style><g
     id="g3540"><path
       class="st0"
       d="M13.3,25.5h10.9L33,40.9l8.9-15.4h10.9c0.5,0,0.7,0.4,0.8,0.8l11.1,31.4c0.2,0.4-0.4,0.9-0.8,0.9H2.2   c-0.4,0-0.9-0.4-0.8-0.9l11.1-31.4C12.7,25.9,12.8,25.5,13.3,25.5L13.3,25.5z"
       id="path3542" /><path
       class="st1"
       d="M33,38.1L22.3,19.7c-1.1-1.8-1.6-3.9-1.6-6.1c0-6.8,5.5-12.2,12.3-12.2c6.8,0,12.2,5.4,12.2,12.2   c0,2.3-0.7,4.5-1.8,6.4L33,38.1z"
       id="path3544" /><path
       class="st2"
       d="M33.3,6.9c3.8,0.1,6.9,3.2,6.9,7.1c-0.1,3.8-3.3,6.9-7.1,6.9c-3.8-0.1-6.9-3.3-6.9-7.1   C26.2,9.8,29.4,6.8,33.3,6.9L33.3,6.9z"
       id="path3546" /></g><path
     style="fill:#008080"
     d="M 32.878429,37.654431 C 32.813099,37.54153 30.298265,33.212214 27.289908,28.033736 24.281551,22.855257 21.648524,18.107375 21.438737,17.482888 19.060668,10.403945 23.751864,2.8528087 31.252193,1.6867585 39.120784,0.46345594 46.192424,7.5125026 44.918849,15.309751 44.757108,16.299981 44.300811,17.79661 43.904856,18.635593 42.75612,21.069629 33.009515,37.880977 32.878429,37.654431 Z m 3.188772,-17.313598 c 1.356836,-0.600194 2.779409,-1.974664 3.548065,-3.428094 0.857399,-1.621229 0.804876,-4.431791 -0.115743,-6.193549 -1.386307,-2.6529278 -3.971662,-4.0802014 -6.95681,-3.8405823 -5.11725,0.4107636 -8.012812,5.8219233 -5.54331,10.3592103 1.769789,3.251686 5.695083,4.594927 9.067798,3.103015 z"
     id="path3554"
     inkscape:connector-curvature="0" /><path
     style="fill:#008080"
     d="M 1.6124443,58.105932 C 1.5209702,57.863525 10.168316,32.928572 12.501256,26.707627 l 0.405206,-1.080508 5.635752,0.008 5.635752,0.008 L 28.5,33.260109 c 2.377119,4.189348 4.39875,7.617953 4.492515,7.619122 0.09377,0.0012 2.152571,-3.430078 4.575125,-7.624994 l 4.404643,-7.627118 5.499676,0 c 4.095959,0 5.563948,0.08111 5.751481,0.317796 0.503362,0.635286 11.313175,31.696195 11.165153,32.081937 -0.136879,0.3567 -3.31609,0.396877 -31.404262,0.396877 -24.7681204,0 -31.2768442,-0.06593 -31.3718867,-0.317797 z"
     id="path3556"
     inkscape:connector-curvature="0" /><path
     style="fill:#0000ff"
     d="M 28.569273,30.012712 C 22.629805,19.718322 21.73902,18.086629 21.346525,16.782467 c -0.405381,-1.34698 -0.443884,-4.280821 -0.07706,-5.87196 0.765483,-3.3203773 3.414855,-6.5077983 6.709933,-8.0726237 3.601397,-1.710296 8.020771,-1.4517747 11.269467,0.6592331 2.621464,1.7034317 4.463105,4.1408724 5.280524,6.9888566 0.519849,1.811214 0.393586,5.195452 -0.263106,7.052076 -0.593055,1.676707 -10.963914,19.775976 -11.334911,19.781735 -0.07969,0.0012 -2.042639,-3.286945 -4.362098,-7.307072 z m 7.594934,-9.678646 c 3.4268,-1.748223 4.842579,-4.933222 3.79489,-8.537148 -0.489966,-1.685422 -1.946419,-3.4415308 -3.566314,-4.3000586 -1.424386,-0.7549103 -4.887932,-0.7854872 -6.358928,-0.056138 -2.288322,1.134596 -3.724677,3.3063695 -3.899622,5.8962425 -0.236179,3.496388 1.765228,6.330932 5.289496,7.491385 1.053656,0.346942 3.615045,0.07987 4.740478,-0.494283 z"
     id="path3558"
     inkscape:connector-curvature="0" /><path
     style="fill:#447821"
     d="M 8.729008,58.175555 1.6698804,58.042373 4.1858298,50.669492 C 5.5696022,46.614407 7.9850675,39.692797 9.5535305,35.288136 11.121993,30.883475 12.528435,26.905703 12.678957,26.448644 l 0.273675,-0.831018 5.581441,0.06831 5.58144,0.0683 4.335201,7.56958 c 2.384359,4.163269 4.4532,7.530246 4.597421,7.482172 0.144223,-0.04807 2.121099,-3.282776 4.393057,-7.188224 2.271959,-3.905449 4.260941,-7.31698 4.419961,-7.581181 0.272911,-0.45342 0.5896,-0.473151 5.645957,-0.351754 4.641089,0.111427 5.398805,0.186016 5.670987,0.558246 0.494107,0.675733 10.482511,29.150353 10.894861,31.058719 l 0.169586,0.784848 -9.20522,0.168542 C 45.160701,58.436021 20.26552,58.393213 8.729008,58.175555 Z"
     id="path3560"
     inkscape:connector-curvature="0" /></svg>